STARTFONT 2.1
COMMENT
COMMENT Converted from OpenType font "Q:\font stuff\winfont\Walkway Condensed.ttf" by "otf2bdf 3.0".
COMMENT
FONT -FreeType-Walkway Condensed-Medium-R-Normal--84-840-72-72-P-247-ISO10646-1
SIZE 84 72 72
FONTBOUNDINGBOX 70 90 -9 -16
STARTPROPERTIES 19
FOUNDRY "FreeType"
FAMILY_NAME "Walkway Condensed"
WEIGHT_NAME "Medium"
SLANT "R"
SETWIDTH_NAME "Normal"
ADD_STYLE_NAME ""
PIXEL_SIZE 84
POINT_SIZE 840
RESOLUTION_X 72
RESOLUTION_Y 72
SPACING "P"
AVERAGE_WIDTH 247
CHARSET_REGISTRY "ISO10646"
CHARSET_ENCODING "1"
FONT_ASCENT 73
FONT_DESCENT 15
COPYRIGHT "©G.M."
_OTF_FONTFILE "Q:\font stuff\winfont\Walkway Condensed.ttf"
_OTF_PSNAME "WalkwayCondensed"
ENDPROPERTIES
CHARS 223
STARTCHAR 0020
ENCODING 32
SWIDTH 250 0
DWIDTH 21 0
BBX 0 0 0 0
BITMAP
ENDCHAR
STARTCHAR 0021
ENCODING 33
SWIDTH 130 0
DWIDTH 11 0
BBX 1 57 5 0
BITMAP
80
80
80
80
80
80
80
80
80
80
80
80
80
80
80
80
80
80
80
80
80
80
80
80
80
80
80
80
80
80
80
80
80
80
80
80
80
80
80
80
80
80
00
00
00
00
00
00
00
00
80
80
80
80
80
80
80
ENDCHAR
STARTCHAR 0022
ENCODING 34
SWIDTH 202 0
DWIDTH 17 0
BBX 8 10 5 46
BITMAP
83
83
83
83
83
83
83
83
83
82
ENDCHAR
STARTCHAR 0023
ENCODING 35
SWIDTH 369 0
DWIDTH 31 0
BBX 22 25 5 14
BITMAP
008080
008080
008080
018080
010180
010180
3FFFFC
7FFFF8
010100
030100
020300
020300
020200
020200
020200
060200
040600
FFFFF0
FFFFF0
040400
040400
0C0400
0C0400
080C00
080800
ENDCHAR
STARTCHAR 0024
ENCODING 36
SWIDTH 452 0
DWIDTH 38 0
BBX 33 69 2 -5
BITMAP
00080C0000
00080C0000
00080C0000
00080C0000
00080C0000
003FFC0000
00FC1F0000
03C80DC000
07080C6000
0C080C3000
08080C1800
18080C0C00
10080C0C00
30080C0600
20080C0600
20080C0200
20080C0200
60080C0300
60080C0300
60080C0100
60080C0100
20080C0100
20080C0000
20080C0000
30080C0000
10080C0000
18080C0000
0C080C0000
0E080C0000
07080C0000
01C80C0000
00F80C0000
003F0C0000
000FEC0000
00087C0000
00080F8000
00080DE000
00080C7000
00080C1800
00080C0C00
00080C0600
00080C0200
00080C0100
00080C0100
80080C0100
80080C0180
80080C0180
80080C0080
C0080C0080
C0080C0080
40080C0180
40080C0180
40080C0180
60080C0100
20080C0100
30080C0300
10080C0200
18080C0600
0C080C0C00
06080C1800
03080C3000
01C80CE000
007C0F8000
001FFE0000
00080C0000
00080C0000
00080C0000
00080C0000
00080C0000
ENDCHAR
STARTCHAR 0025
ENCODING 37
SWIDTH 523 0
DWIDTH 44 0
BBX 38 59 3 -2
BITMAP
0000000040
00000000C0
07E0000080
0F78000180
1818000100
300C000300
2006000200
6006000600
6002000400
4002000C00
4003000800
4003001800
4001001000
C001003000
C001002000
C001006000
C001004000
C00100C000
C001008000
C001018000
4001010000
4003030000
4003020000
4002060000
6002040000
60020C0000
2006080000
300C180000
1818100000
0E78300F00
07E0203FC0
0000606060
000040C030
0000C08010
0000818018
0001810018
0001010008
0003010008
0002030008
000603000C
000403000C
000C02000C
000802000C
001802000C
001002000C
003002000C
003002000C
006002000C
006003000C
00C0030008
00C0010008
0180010008
0180010018
0100018018
0300008030
020000C030
06000070E0
0000003FC0
0000000600
ENDCHAR
STARTCHAR 0026
ENCODING 38
SWIDTH 416 0
DWIDTH 35 0
BBX 28 59 3 -2
BITMAP
001F8000
007FE000
00C03000
01801800
03000C00
02000400
02000400
06000600
04000200
04000200
04000200
04000200
04000200
04000600
06000400
02000400
02000C00
03000800
01001000
01803000
00C06000
00604000
00318000
001B0000
00060000
000C0000
00380000
00600000
00C00000
01800000
03000000
06000000
0C000000
18000000
10000000
30000030
60000030
40000030
40000030
C0000030
80000030
80000030
80000030
80000070
80000070
80000070
800000F0
800000B0
800001B0
C00001B0
40000330
60000230
30000630
10000C30
18001830
0E003030
03C1E030
00FF8030
00000030
ENDCHAR
STARTCHAR 0027
ENCODING 39
SWIDTH 119 0
DWIDTH 10 0
BBX 1 10 5 46
BITMAP
80
80
80
80
80
80
80
80
80
80
ENDCHAR
STARTCHAR 0028
ENCODING 40
SWIDTH 166 0
DWIDTH 14 0
BBX 9 76 4 -15
BITMAP
0180
0100
0300
0200
0200
0400
0400
0400
0800
0800
0800
1800
1000
1000
1000
3000
2000
2000
2000
2000
2000
6000
4000
4000
4000
4000
4000
4000
4000
C000
C000
C000
C000
8000
8000
8000
8000
8000
8000
8000
8000
8000
8000
8000
C000
C000
C000
4000
4000
4000
4000
4000
4000
4000
4000
6000
2000
2000
2000
2000
3000
1000
1000
1000
1000
0800
0800
0800
0400
0400
0400
0200
0200
0200
0100
0100
ENDCHAR
STARTCHAR 0029
ENCODING 41
SWIDTH 166 0
DWIDTH 14 0
BBX 8 76 1 -15
BITMAP
80
80
40
40
20
20
20
10
10
10
08
08
08
0C
04
04
04
06
06
02
02
02
02
03
03
01
01
01
01
01
01
01
01
01
01
01
01
01
01
01
01
01
01
01
01
01
01
01
01
01
01
03
03
02
02
02
02
02
06
04
04
04
0C
08
08
08
18
10
10
30
20
20
60
40
C0
80
ENDCHAR
STARTCHAR 002A
ENCODING 42
SWIDTH 238 0
DWIDTH 20 0
BBX 13 19 3 38
BITMAP
0200
0200
0200
0200
8218
E238
3260
1BC0
0F80
0700
1F80
3AE0
6230
C218
0200
0200
0200
0200
0200
ENDCHAR
STARTCHAR 002B
ENCODING 43
SWIDTH 392 0
DWIDTH 33 0
BBX 23 30 5 6
BITMAP
001000
001000
001000
001000
001000
001000
001000
001000
001000
001000
001000
001000
001000
001000
FFFFFE
FFFFFE
001000
001000
001000
001000
001000
001000
001000
001000
001000
001000
001000
001000
001000
001000
ENDCHAR
STARTCHAR 002C
ENCODING 44
SWIDTH 178 0
DWIDTH 15 0
BBX 4 15 6 -7
BITMAP
30
20
20
20
20
60
60
40
40
40
C0
C0
80
80
80
ENDCHAR
STARTCHAR 002D
ENCODING 45
SWIDTH 250 0
DWIDTH 21 0
BBX 15 2 3 22
BITMAP
FFFE
FFFE
ENDCHAR
STARTCHAR 002E
ENCODING 46
SWIDTH 142 0
DWIDTH 12 0
BBX 1 7 6 0
BITMAP
80
80
80
80
80
80
80
ENDCHAR
STARTCHAR 002F
ENCODING 47
SWIDTH 250 0
DWIDTH 21 0
BBX 21 58 0 1
BITMAP
000018
000010
000010
000030
000020
000020
000060
000040
000040
0000C0
000080
000080
000180
000100
000100
000300
000200
000200
000600
000400
000400
000C00
000800
000800
001800
001000
001000
003000
002000
002000
006000
004000
004000
00C000
008000
008000
018000
010000
010000
030000
020000
020000
060000
040000
040000
0C0000
080000
080000
180000
100000
100000
300000
200000
200000
600000
400000
400000
C00000
ENDCHAR
STARTCHAR 0030
ENCODING 48
SWIDTH 404 0
DWIDTH 34 0
BBX 28 57 3 -1
BITMAP
003FE000
00F0F800
03801C00
06000600
0C000300
08000180
18000080
100000C0
30000040
20000060
60000060
40000020
40000020
40000030
C0000010
80000010
80000010
80000010
80000010
80000010
80000010
80000010
80000010
80000010
80000010
80000010
80000010
80000010
80000010
80000010
80000010
80000010
80000010
80000010
80000010
80000010
80000010
80000010
80000010
80000010
80000010
80000010
C0000010
40000030
40000020
40000020
60000060
20000060
30000040
100000C0
18000180
0C000180
06000300
03000600
01C01C00
00FFF000
003FC000
ENDCHAR
STARTCHAR 0031
ENCODING 49
SWIDTH 285 0
DWIDTH 24 0
BBX 12 54 6 1
BITMAP
0030
0070
0070
00D0
0190
0310
0610
0410
0C10
1810
3010
6010
C010
0010
0010
0010
0010
0010
0010
0010
0010
0010
0010
0010
0010
0010
0010
0010
0010
0010
0010
0010
0010
0010
0010
0010
0010
0010
0010
0010
0010
0010
0010
0010
0010
0010
0010
0010
0010
0010
0010
0010
0010
0010
ENDCHAR
STARTCHAR 0032
ENCODING 50
SWIDTH 404 0
DWIDTH 34 0
BBX 29 55 3 1
BITMAP
003FE000
00FCFC00
03800E00
07000300
06000180
0C000080
180000C0
10000040
10000040
30000060
20000020
20000020
20000020
60000020
60000020
40000060
40000040
40000040
400000C0
00000080
00000100
00000300
00000600
00000C00
00001800
00003000
00006000
0001C000
00038000
00060000
000C0000
00180000
00300000
00600000
00C00000
01800000
03000000
03000000
06000000
0C000000
0C000000
18000000
18000000
30000000
30000000
20000000
60000000
60000000
40000000
40000000
40000000
40000000
40000000
FFFFFFF8
FFFFFFF8
ENDCHAR
STARTCHAR 0033
ENCODING 51
SWIDTH 404 0
DWIDTH 34 0
BBX 30 56 2 0
BITMAP
001FF800
00FE7E00
01C00380
030001C0
06000060
0C000060
08000030
18000010
10000018
10000018
30000008
20000008
20000008
20000008
20000008
20000008
20000018
20000018
00000010
00000010
00000030
00000060
000000C0
00000180
00000700
0003F800
0003FE00
00000380
000000C0
00000060
00000030
00000010
00000018
00000008
00000008
00000008
0000000C
C000000C
C0000004
C0000004
40000004
40000004
40000004
4000000C
40000008
60000008
20000018
30000018
10000030
18000030
0C000060
060000C0
03000380
01C00F00
007FFC00
000FE000
ENDCHAR
STARTCHAR 0034
ENCODING 52
SWIDTH 404 0
DWIDTH 34 0
BBX 30 54 2 1
BITMAP
00080600
00080600
00100600
00100600
00100600
00200600
00200600
00600600
00400600
00400600
00C00600
00800600
00800600
01800600
01000600
01000600
03000600
02000600
02000600
06000600
04000600
04000600
0C000600
08000600
08000600
10000600
10000600
10000600
20000600
20000600
20000600
40000600
40000600
C00007FC
FFFFFFFC
00000600
00000600
00000600
00000600
00000600
00000600
00000600
00000600
00000600
00000600
00000600
00000600
00000600
00000600
00000600
00000600
00000600
00000600
00000600
ENDCHAR
STARTCHAR 0035
ENCODING 53
SWIDTH 404 0
DWIDTH 34 0
BBX 29 55 2 0
BITMAP
3FFFFFF0
30000000
30000000
30000000
30000000
30000000
30000000
30000000
30000000
20000000
20000000
20000000
20000000
20000000
20000000
20000000
20000000
200F8000
207FF800
21C01C00
23000700
26000380
24000080
280000C0
30000060
30000020
20000030
00000010
00000010
00000018
00000008
00000008
00000008
00000008
00000008
00000008
00000008
C0000008
C0000008
C0000008
C0000008
40000008
40000018
40000010
60000010
20000030
20000020
30000060
18000040
080000C0
0C000180
07000300
01C00E00
00FFF800
001FE000
ENDCHAR
STARTCHAR 0036
ENCODING 54
SWIDTH 404 0
DWIDTH 34 0
BBX 27 55 4 -1
BITMAP
003F0000
01FFE000
03003800
06000C00
08000600
18000200
30000300
20000180
60000080
40000080
400000C0
C0000040
C0000040
80000040
80000040
80000060
80000060
80000060
80000000
80000000
80000000
807F8000
81E1E000
87003800
8C000C00
98000600
90000300
A0000100
A0000180
C0000080
C0000080
C00000C0
80000040
80000040
80000040
80000040
80000040
80000040
80000040
80000040
80000040
80000040
80000040
80000040
C00000C0
40000080
40000080
60000180
20000100
30000300
18000600
0C000C00
06001800
03807000
00FFC000
ENDCHAR
STARTCHAR 0037
ENCODING 55
SWIDTH 404 0
DWIDTH 34 0
BBX 27 54 4 1
BITMAP
FFFFFFE0
00000040
00000040
000000C0
00000080
00000080
00000180
00000100
00000100
00000300
00000200
00000200
00000600
00000400
00000400
00000C00
00000800
00000800
00001800
00001000
00001000
00003000
00002000
00002000
00006000
00004000
00004000
0000C000
00008000
00008000
00018000
00010000
00010000
00020000
00020000
00020000
00040000
00040000
00040000
00080000
00080000
00080000
00100000
00100000
00300000
00200000
00200000
00600000
00400000
00400000
00C00000
00800000
00800000
01800000
ENDCHAR
STARTCHAR 0038
ENCODING 56
SWIDTH 416 0
DWIDTH 35 0
BBX 31 56 2 0
BITMAP
001FF800
00FC7E00
01C00300
030000C0
06000040
0C000020
08000020
18000010
18000010
10000010
10000018
10000008
10000008
10000008
10000008
10000018
10000018
10000010
18000010
08000020
0C000060
060000C0
03000180
01C00700
007FFC00
003FF800
01F00F00
030001C0
0C000060
18000030
10000018
30000008
2000000C
60000004
40000004
40000004
40000006
40000002
C0000002
C0000002
C0000002
C0000002
40000006
40000006
40000004
40000004
60000004
2000000C
30000008
10000018
18000030
0C000060
070000C0
01C00780
00FFFE00
001FF000
ENDCHAR
STARTCHAR 0039
ENCODING 57
SWIDTH 404 0
DWIDTH 34 0
BBX 27 57 4 -2
BITMAP
000C0000
00FFE000
03803000
06000C00
0C000600
18000200
10000100
20000180
20000080
40000080
400000C0
40000040
C0000040
80000040
80000040
80000060
80000060
80000060
80000060
80000060
80000060
80000060
80000060
C0000060
40000060
400000E0
600000E0
200001E0
30000160
18000360
08000660
06000C60
03003860
01F1E060
003F8060
00000060
00000060
00000060
00000060
00000060
80000060
80000060
80000060
80000040
80000040
80000040
C00000C0
400000C0
40000080
60000180
20000100
10000300
18000600
0C000C00
06001800
03C07000
00FFC000
ENDCHAR
STARTCHAR 003A
ENCODING 58
SWIDTH 166 0
DWIDTH 14 0
BBX 1 39 7 0
BITMAP
80
80
80
80
80
80
80
00
00
00
00
00
00
00
00
00
00
00
00
00
00
00
00
00
00
00
00
00
00
00
00
00
80
80
80
80
80
80
80
ENDCHAR
STARTCHAR 003B
ENCODING 59
SWIDTH 178 0
DWIDTH 15 0
BBX 3 46 6 -7
BITMAP
20
20
20
20
20
20
20
00
00
00
00
00
00
00
00
00
00
00
00
00
00
00
00
00
00
00
00
00
00
00
00
00
20
20
20
60
60
40
40
40
C0
C0
80
80
80
80
ENDCHAR
STARTCHAR 003C
ENCODING 60
SWIDTH 369 0
DWIDTH 31 0
BBX 25 32 3 5
BITMAP
00000080
00000380
00000600
00001C00
00007000
0000C000
00038000
000E0000
00380000
00700000
01C00000
07000000
0E000000
38000000
E0000000
C0000000
C0000000
70000000
18000000
0E000000
03800000
00C00000
00700000
001C0000
00070000
00038000
0000E000
00003800
00001C00
00000700
00000180
00000080
ENDCHAR
STARTCHAR 003D
ENCODING 61
SWIDTH 440 0
DWIDTH 37 0
BBX 31 12 3 15
BITMAP
FFFFFFFE
00000000
00000000
00000000
00000000
00000000
00000000
00000000
00000000
00000000
FFFFFFFE
FFFFFFFE
ENDCHAR
STARTCHAR 003E
ENCODING 62
SWIDTH 369 0
DWIDTH 31 0
BBX 25 32 3 5
BITMAP
80000000
E0000000
30000000
1C000000
07000000
01800000
00E00000
00380000
000C0000
00070000
0001C000
00007000
00003800
00000E00
00000380
00000180
00000180
00000700
00001C00
00003800
0000E000
00038000
00070000
001C0000
00700000
00E00000
03800000
0E000000
1C000000
70000000
C0000000
80000000
ENDCHAR
STARTCHAR 003F
ENCODING 63
SWIDTH 369 0
DWIDTH 31 0
BBX 26 58 2 1
BITMAP
007FC000
01E0F000
03001C00
04000C00
08000200
18000300
10000100
20000180
20000080
60000080
40000080
400000C0
400000C0
C00000C0
C00000C0
00000080
00000080
00000080
00000080
00000100
00000100
00000200
00000600
00000400
00000C00
00001800
00003000
00002000
00006000
0000C000
00008000
00018000
00030000
00030000
00020000
00060000
00040000
00040000
00040000
000C0000
000C0000
000C0000
000C0000
00000000
00000000
00000000
00000000
00000000
00000000
00000000
00000000
000C0000
000C0000
000C0000
000C0000
000C0000
000C0000
000C0000
ENDCHAR
STARTCHAR 0040
ENCODING 64
SWIDTH 583 0
DWIDTH 49 0
BBX 43 59 3 0
BITMAP
00007FF00000
0003E03E0000
000F00038000
001C0000C000
003000006000
006000003000
00C000001800
018000000C00
030000000600
030000000200
060000000300
04003FC04100
0C00E0704180
080180184080
1803000C4080
1006000440C0
300C0002C040
30080002C040
201800028040
601000018040
603000018060
602000018060
402000018060
404000018060
404000018060
404000008060
C04000018060
C04000018060
C0C000010060
C08000010040
C08000010040
C08000010040
4080000100C0
408000030080
408000030080
408000030180
404000070100
604000050300
604000070300
2060000A0600
2020001A0600
302000120C00
101000221800
101800623000
180C0183E000
08070701C0C0
0C01FC000080
040000000180
020000000100
030000000300
018000000600
008000000C00
004000001800
006000003000
00180000E000
000C0001C000
0007800F0000
0001FFFC0000
00001FE00000
ENDCHAR
STARTCHAR 0041
ENCODING 65
SWIDTH 440 0
DWIDTH 37 0
BBX 37 57 0 0
BITMAP
0000300000
0000300000
0000780000
0000780000
0000480000
0000C80000
0000CC0000
0000840000
0000840000
0001860000
0001020000
0001020000
0003030000
0002010000
0002010000
0006018000
0006018000
0004008000
000C008000
000C00C000
0008004000
0018004000
0018006000
0010002000
0030002000
0030003000
0020003000
0020001000
0060001000
0040001800
0040000800
00C0000800
0080000C00
0080000400
0180000400
0180000600
0100000200
03FFFFFE00
0300000300
0200000300
0600000100
0600000100
0400000180
0C00000080
0C00000080
08000000C0
0800000040
1800000040
1000000060
1000000060
3000000020
2000000020
2000000030
6000000010
6000000010
4000000018
C000000008
ENDCHAR
STARTCHAR 0042
ENCODING 66
SWIDTH 452 0
DWIDTH 38 0
BBX 33 57 3 0
BITMAP
FFFFFC0000
FFFFFF8000
800000E000
8000007000
8000001000
8000001800
8000000C00
8000000400
8000000400
8000000600
8000000200
8000000200
8000000200
8000000200
8000000200
8000000200
8000000200
8000000200
8000000600
8000000400
8000000400
8000000800
8000001800
8000001000
8000006000
800000C000
80001F0000
FFFFFE0000
800003C000
8000007000
8000001800
8000000C00
8000000400
8000000600
8000000200
8000000300
8000000100
8000000100
8000000100
8000000100
8000000100
8000000180
8000000180
8000000100
8000000100
8000000100
8000000100
8000000300
8000000200
8000000200
8000000600
8000000C00
8000001800
8000003000
800000E000
FFFFFF8000
FFFFFE0000
ENDCHAR
STARTCHAR 0043
ENCODING 67
SWIDTH 500 0
DWIDTH 42 0
BBX 36 59 3 -1
BITMAP
0000080000
0003FFE000
000F807800
003C000E00
0070000300
00C0000180
01800000C0
0300000060
0600000020
0600000030
0C00000010
0800000000
1800000000
1000000000
3000000000
2000000000
2000000000
6000000000
6000000000
4000000000
4000000000
4000000000
4000000000
C000000000
8000000000
8000000000
8000000000
8000000000
8000000000
8000000000
8000000000
8000000000
8000000000
8000000000
8000000000
C000000000
C000000000
4000000000
4000000000
4000000000
4000000000
6000000000
2000000000
2000000000
3000000000
1000000000
1800000000
1800000000
0C00000030
0C00000020
0600000060
03000000C0
0180000180
01C0000300
00E0000600
0038001C00
001F00F800
0007FFC000
00003C0000
ENDCHAR
STARTCHAR 0044
ENCODING 68
SWIDTH 476 0
DWIDTH 40 0
BBX 34 57 3 0
BITMAP
FFFFF00000
FFFFFE0000
C000078000
C00000C000
C000006000
C000003000
C000001800
C000000C00
C000000400
C000000600
C000000200
C000000300
C000000100
C000000100
C000000180
C000000080
C000000080
C000000080
C0000000C0
C000000040
C000000040
C000000040
C000000040
C000000040
C000000040
C000000040
C000000040
C000000040
C000000040
C000000040
C000000040
C000000040
C000000040
C000000040
C000000040
C000000040
C000000040
C0000000C0
C0000000C0
C000000080
C000000080
C000000180
C000000100
C000000100
C000000300
C000000200
C000000600
C000000400
C000000C00
C000001800
C000003000
C000006000
C00000C000
C000038000
C0000E0000
FFFFF80000
FFFFC00000
ENDCHAR
STARTCHAR 0045
ENCODING 69
SWIDTH 392 0
DWIDTH 33 0
BBX 29 57 3 0
BITMAP
FFFFFFF8
FFFFFFF8
C0000000
C0000000
C0000000
C0000000
C0000000
C0000000
C0000000
C0000000
C0000000
C0000000
C0000000
C0000000
C0000000
C0000000
C0000000
C0000000
C0000000
C0000000
C0000000
C0000000
C0000000
C0000000
C0000000
C0000000
C0000000
FFFFFFC0
C0000000
C0000000
C0000000
C0000000
C0000000
C0000000
C0000000
C0000000
C0000000
C0000000
C0000000
C0000000
C0000000
C0000000
C0000000
C0000000
C0000000
C0000000
C0000000
C0000000
C0000000
C0000000
C0000000
C0000000
C0000000
C0000000
C0000000
FFFFFFF8
FFFFFFF8
ENDCHAR
STARTCHAR 0046
ENCODING 70
SWIDTH 357 0
DWIDTH 30 0
BBX 27 57 3 0
BITMAP
FFFFFFE0
FFFFFFE0
C0000000
C0000000
C0000000
C0000000
C0000000
C0000000
C0000000
C0000000
C0000000
C0000000
C0000000
C0000000
C0000000
C0000000
C0000000
C0000000
C0000000
C0000000
C0000000
C0000000
C0000000
C0000000
C0000000
C0000000
C0000000
FFFFFE00
C0000000
C0000000
C0000000
C0000000
C0000000
C0000000
C0000000
C0000000
C0000000
C0000000
C0000000
C0000000
C0000000
C0000000
C0000000
C0000000
C0000000
C0000000
C0000000
C0000000
C0000000
C0000000
C0000000
C0000000
C0000000
C0000000
C0000000
C0000000
C0000000
ENDCHAR
STARTCHAR 0047
ENCODING 71
SWIDTH 535 0
DWIDTH 45 0
BBX 40 59 2 -1
BITMAP
0000080000
0003FFE000
000F807800
0038000E00
0060000300
00C0000180
01800000C0
0300000060
0600000020
0400000010
0C00000018
0800000008
1800000008
100000000C
3000000004
2000000004
2000000004
6000000006
4000000002
4000000000
4000000000
4000000000
C000000000
C000000000
8000000000
8000000000
8000000000
8000000000
8000000000
8000000000
8000000000
800007FFFF
800007FFFF
8000000003
8000000003
8000000003
C000000003
4000000003
4000000002
4000000002
4000000002
6000000002
2000000002
2000000006
3000000004
1000000004
180000000C
0800000008
0C00000018
0400000010
0600000030
0300000060
01800000C0
00C0000180
0060000300
0038000E00
000F007C00
0003FFF000
00001C0000
ENDCHAR
STARTCHAR 0048
ENCODING 72
SWIDTH 476 0
DWIDTH 40 0
BBX 34 57 3 0
BITMAP
C0000000C0
C0000000C0
C0000000C0
C0000000C0
C0000000C0
C0000000C0
C0000000C0
C0000000C0
C0000000C0
C0000000C0
C0000000C0
C0000000C0
C0000000C0
C0000000C0
C0000000C0
C0000000C0
C0000000C0
C0000000C0
C0000000C0
C0000000C0
C0000000C0
C0000000C0
C0000000C0
C0000000C0
C0000000C0
C0000000C0
C0000000C0
FFFFFFFFC0
C0000000C0
C0000000C0
C0000000C0
C0000000C0
C0000000C0
C0000000C0
C0000000C0
C0000000C0
C0000000C0
C0000000C0
C0000000C0
C0000000C0
C0000000C0
C0000000C0
C0000000C0
C0000000C0
C0000000C0
C0000000C0
C0000000C0
C0000000C0
C0000000C0
C0000000C0
C0000000C0
C0000000C0
C0000000C0
C0000000C0
C0000000C0
C0000000C0
C0000000C0
ENDCHAR
STARTCHAR 0049
ENCODING 73
SWIDTH 95 0
DWIDTH 8 0
BBX 2 57 3 0
BITMAP
C0
C0
C0
C0
C0
C0
C0
C0
C0
C0
C0
C0
C0
C0
C0
C0
C0
C0
C0
C0
C0
C0
C0
C0
C0
C0
C0
C0
C0
C0
C0
C0
C0
C0
C0
C0
C0
C0
C0
C0
C0
C0
C0
C0
C0
C0
C0
C0
C0
C0
C0
C0
C0
C0
C0
C0
C0
ENDCHAR
STARTCHAR 004A
ENCODING 74
SWIDTH 345 0
DWIDTH 29 0
BBX 24 58 1 -1
BITMAP
000001
000001
000001
000001
000001
000001
000001
000001
000001
000001
000001
000001
000001
000001
000001
000001
000001
000001
000001
000001
000001
000001
000001
000001
000001
000001
000001
000001
000001
000001
000001
000001
000001
000001
000001
000001
000001
000001
000001
000001
000001
000001
000001
000001
000003
800003
C00003
400002
400002
400002
600006
200004
30000C
180018
0C0030
0700E0
03FF80
001800
ENDCHAR
STARTCHAR 004B
ENCODING 75
SWIDTH 464 0
DWIDTH 39 0
BBX 35 57 3 0
BITMAP
C0000000C0
C000000180
C000000300
C000000600
C000000C00
C000001800
C000003000
C000006000
C00000C000
C000008000
C000018000
C000030000
C000060000
C0000C0000
C000180000
C000300000
C000600000
C000C00000
C001800000
C001000000
C003000000
C006000000
C00C000000
C018000000
C030000000
C078000000
C0CC000000
C184000000
C306000000
C203000000
C401000000
CC01800000
D800C00000
F000600000
E000200000
C000300000
C000180000
C000080000
C0000C0000
C000060000
C000020000
C000010000
C000018000
C00000C000
C000004000
C000006000
C000003000
C000001000
C000000800
C000000C00
C000000600
C000000200
C000000300
C000000180
C000000080
C0000000C0
C000000060
ENDCHAR
STARTCHAR 004C
ENCODING 76
SWIDTH 357 0
DWIDTH 30 0
BBX 27 57 3 0
BITMAP
C0000000
C0000000
C0000000
C0000000
C0000000
C0000000
C0000000
C0000000
C0000000
C0000000
C0000000
C0000000
C0000000
C0000000
C0000000
C0000000
C0000000
C0000000
C0000000
C0000000
C0000000
C0000000
C0000000
C0000000
C0000000
C0000000
C0000000
C0000000
C0000000
C0000000
C0000000
C0000000
C0000000
C0000000
C0000000
C0000000
C0000000
C0000000
C0000000
C0000000
C0000000
C0000000
C0000000
C0000000
C0000000
C0000000
C0000000
C0000000
C0000000
C0000000
C0000000
C0000000
C0000000
C0000000
C0000000
FFFFFFE0
FFFFFFE0
ENDCHAR
STARTCHAR 004D
ENCODING 77
SWIDTH 571 0
DWIDTH 48 0
BBX 42 57 3 0
BITMAP
E000000000C0
E000000001C0
E00000000140
F00000000140
D00000000340
D00000000240
D80000000240
C80000000640
C80000000440
CC0000000440
C40000000C40
C40000000840
C60000000840
C20000001840
C20000001040
C30000001040
C10000003040
C10000002040
C18000002040
C08000006040
C08000004040
C0C00000C040
C0400000C040
C04000008040
C06000018040
C02000010040
C02000010040
C03000030040
C01000020040
C01000020040
C01800060040
C00800040040
C00800040040
C00C000C0040
C00400080040
C00400080040
C00600180040
C00200100040
C00200100040
C00300300040
C00100200040
C00100200040
C00080600040
C00080400040
C00080400040
C00040C00040
C00040800040
C00040800040
C00021800040
C00021000040
C00021000040
C00013000040
C00012000040
C0001A000040
C0000E000040
C0000C000040
C0000C000040
ENDCHAR
STARTCHAR 004E
ENCODING 78
SWIDTH 476 0
DWIDTH 40 0
BBX 34 57 3 0
BITMAP
C0000000C0
E0000000C0
E0000000C0
D0000000C0
D0000000C0
C8000000C0
CC000000C0
C4000000C0
C6000000C0
C2000000C0
C3000000C0
C1000000C0
C1800000C0
C0800000C0
C0400000C0
C0400000C0
C0200000C0
C0300000C0
C0100000C0
C0180000C0
C0080000C0
C00C0000C0
C0040000C0
C0060000C0
C0020000C0
C0010000C0
C0018000C0
C0008000C0
C000C000C0
C0004000C0
C0006000C0
C0002000C0
C0003000C0
C0001800C0
C0001800C0
C0000C00C0
C0000400C0
C0000600C0
C0000200C0
C0000300C0
C0000100C0
C0000180C0
C00000C0C0
C00000C0C0
C0000060C0
C0000020C0
C0000030C0
C0000010C0
C0000018C0
C0000008C0
C000000CC0
C0000004C0
C0000006C0
C0000002C0
C0000003C0
C0000001C0
C0000000C0
ENDCHAR
STARTCHAR 004F
ENCODING 79
SWIDTH 535 0
DWIDTH 45 0
BBX 41 58 2 -1
BITMAP
00007E000000
0007FFE00000
001E007C0000
0078000E0000
00E000030000
018000018000
03000000C000
020000006000
060000003000
0C0000001000
080000001800
180000000800
100000000C00
300000000400
200000000600
200000000600
600000000200
600000000200
400000000300
400000000100
400000000100
C00000000100
C00000000100
C00000000100
800000000100
800000000100
800000000180
800000000180
800000000180
800000000180
800000000180
800000000180
800000000100
C00000000100
C00000000100
C00000000100
400000000100
400000000100
400000000300
600000000200
600000000200
200000000200
200000000600
300000000400
100000000C00
180000000C00
180000000800
0C0000001800
040000003000
060000002000
030000006000
01800000C000
01C000018000
00E000070000
0038000E0000
001F00780000
0003FFE00000
00001C000000
ENDCHAR
STARTCHAR 0050
ENCODING 80
SWIDTH 440 0
DWIDTH 37 0
BBX 32 57 3 0
BITMAP
FFFFFC00
FFFFFF80
C00001E0
C0000070
C0000018
C0000008
C000000C
C0000004
C0000006
C0000002
C0000002
C0000002
C0000002
C0000003
C0000003
C0000003
C0000003
C0000003
C0000002
C0000002
C0000002
C0000006
C0000006
C0000004
C000000C
C0000018
C0000030
C0000060
C00001C0
FFFFFF80
FFFFFC00
C0000000
C0000000
C0000000
C0000000
C0000000
C0000000
C0000000
C0000000
C0000000
C0000000
C0000000
C0000000
C0000000
C0000000
C0000000
C0000000
C0000000
C0000000
C0000000
C0000000
C0000000
C0000000
C0000000
C0000000
C0000000
C0000000
ENDCHAR
STARTCHAR 0051
ENCODING 81
SWIDTH 535 0
DWIDTH 45 0
BBX 41 63 2 -6
BITMAP
00007E000000
0007FFE00000
001E007C0000
0078000E0000
00E000030000
018000018000
03000000C000
020000006000
060000003000
0C0000001000
080000001800
180000000800
100000000C00
300000000400
200000000600
200000000600
600000000200
600000000200
400000000300
400000000100
400000000100
C00000000100
C00000000100
C00000000100
800000000100
800000000100
800000000180
800000000180
800000000180
800000000180
800000000180
800000000180
800000000100
800000000100
C00000000100
C00000000100
400000000100
400000000300
400000000300
400000000200
600FE0000200
201830000600
202008000600
304004000400
10C006000C00
188002000800
198003001800
0D0001001800
050001003000
070001006000
030001006000
01800100C000
01C001018000
00F001870000
0038009C0000
001F00F80000
0003FFC00000
00001C400000
000000600000
000000300000
0000001C0000
0000000FF800
00000000F800
ENDCHAR
STARTCHAR 0052
ENCODING 82
SWIDTH 452 0
DWIDTH 38 0
BBX 32 57 3 0
BITMAP
FFFFFE00
FFFFFFC0
C00000E0
C0000030
C0000018
C000000C
C0000004
C0000006
C0000002
C0000002
C0000002
C0000003
C0000003
C0000001
C0000001
C0000001
C0000003
C0000003
C0000002
C0000002
C0000002
C0000006
C0000004
C000000C
C0000008
C0000018
C0000030
C00000E0
C0000F80
FFFFFF00
C0000FC0
C00000E0
C0000030
C0000018
C0000008
C000000C
C0000004
C0000006
C0000006
C0000002
C0000002
C0000002
C0000002
C0000002
C0000002
C0000002
C0000002
C0000002
C0000002
C0000002
C0000002
C0000002
C0000002
C0000002
C0000002
C0000002
C0000002
ENDCHAR
STARTCHAR 0053
ENCODING 83
SWIDTH 452 0
DWIDTH 38 0
BBX 33 59 2 -1
BITMAP
0000800000
007FFE0000
01F0078000
038000E000
0600003000
0C00001800
1800000800
1000000C00
3000000400
2000000600
2000000200
2000000200
6000000300
6000000300
6000000100
6000000100
2000000100
2000000000
2000000000
2000000000
1000000000
1000000000
0800000000
0C00000000
0700000000
01C0000000
00F0000000
003F000000
0007E00000
0000FC0000
00001F8000
000003E000
0000007000
0000001800
0000000C00
0000000600
0000000200
0000000300
0000000100
8000000100
8000000180
8000000180
8000000080
C000000080
C000000080
4000000080
4000000180
4000000180
6000000100
2000000100
3000000300
1000000200
0800000600
0C00000C00
0700001800
0380007000
00F803C000
003FFF0000
0000E00000
ENDCHAR
STARTCHAR 0054
ENCODING 84
SWIDTH 380 0
DWIDTH 32 0
BBX 32 57 0 0
BITMAP
FFFFFFFF
FFFFFFFF
00018000
00018000
00018000
00018000
00018000
00018000
00018000
00018000
00018000
00018000
00018000
00018000
00018000
00018000
00018000
00018000
00018000
00018000
00018000
00018000
00018000
00018000
00018000
00018000
00018000
00018000
00018000
00018000
00018000
00018000
00018000
00018000
00018000
00018000
00018000
00018000
00018000
00018000
00018000
00018000
00018000
00018000
00018000
00018000
00018000
00018000
00018000
00018000
00018000
00018000
00018000
00018000
00018000
00018000
00018000
ENDCHAR
STARTCHAR 0055
ENCODING 85
SWIDTH 464 0
DWIDTH 39 0
BBX 33 58 3 -1
BITMAP
C000000180
C000000180
C000000180
C000000180
C000000180
C000000180
C000000180
C000000180
C000000180
C000000180
C000000180
C000000180
C000000180
C000000180
C000000180
C000000180
C000000180
C000000180
C000000180
C000000180
C000000180
C000000180
C000000180
C000000180
C000000180
C000000180
C000000180
C000000180
C000000180
C000000180
C000000180
C000000180
C000000180
C000000180
C000000180
C000000180
C000000180
C000000180
C000000180
C000000100
4000000100
4000000100
4000000100
4000000100
6000000300
6000000300
2000000200
2000000200
3000000600
1000000400
1800000C00
0C00001800
0E00003800
0700007000
038001E000
00F0078000
003FFE0000
0001800000
ENDCHAR
STARTCHAR 0056
ENCODING 86
SWIDTH 440 0
DWIDTH 37 0
BBX 35 57 1 0
BITMAP
8000000020
8000000060
C000000040
4000000040
4000000040
60000000C0
2000000080
2000000080
3000000180
1000000100
1000000100
1000000100
0800000300
0800000200
0800000200
0C00000600
0400000400
0400000400
0600000C00
0200000800
0200000800
0300000800
0100001800
0100001000
0100001000
0180003000
0080002000
0080002000
00C0002000
0040006000
0040004000
0060004000
002000C000
0020008000
0020008000
0010018000
0010010000
0010010000
0018010000
0008030000
0008020000
000C020000
0004060000
0004040000
0006040000
0002040000
00020C0000
0002080000
0003080000
0001180000
0001100000
0001900000
0000B00000
0000A00000
0000E00000
0000600000
0000600000
ENDCHAR
STARTCHAR 0057
ENCODING 87
SWIDTH 678 0
DWIDTH 57 0
BBX 55 57 1 0
BITMAP
80000400000002
C0000600000006
40000200000004
40000200000004
40000200000004
2000030000000C
20000100000008
20000100000008
30000180000018
10000080000010
10000080000010
180000C0000010
08000040000030
08000040000020
08000040000020
0C000060000060
04000020000040
04000020000040
06000030000040
020000100000C0
02000010000080
02000010000080
03000038000180
01000038000100
01000028000100
0180002C000100
00800064000300
00800044000200
00C00046000200
004000C2000200
004000C2000400
00400082000400
00600083000400
00200181000C00
00200101000800
00300101800800
00100300800800
00100300801000
00100200801000
00180200C01000
00080600403000
00080400402000
000C0400602000
00040400202000
00040C00204000
00040800204000
00020800104000
0002180010C000
00021000108000
00031000188000
00011000088000
00013000090000
0001A0000D0000
0000A000050000
0000E000070000
0000C000060000
0000C000060000
ENDCHAR
STARTCHAR 0058
ENCODING 88
SWIDTH 428 0
DWIDTH 36 0
BBX 35 57 0 0
BITMAP
6000000060
20000000C0
3000000080
1800000180
0800000100
0C00000300
0400000600
0600000400
0300000C00
0100000800
0180001800
0080001000
00C0003000
0040006000
0060004000
003000C000
0010008000
0018018000
0008030000
000C030000
0004060000
0006040000
00030C0000
0001080000
0001980000
0000B00000
0000E00000
0000600000
0000600000
0000F00000
0001900000
0001180000
0003080000
00020C0000
0006060000
0004020000
000C030000
0018010000
0010018000
0030008000
002000C000
0060006000
00C0002000
00C0003000
0180001000
0100001800
0300000800
0200000C00
0600000600
0C00000200
0800000300
1800000100
1000000180
3000000080
2000000040
6000000060
C000000020
ENDCHAR
STARTCHAR 0059
ENCODING 89
SWIDTH 440 0
DWIDTH 37 0
BBX 37 57 0 0
BITMAP
C000000018
4000000030
2000000020
3000000060
1000000040
1800000080
0C00000180
0400000100
0600000300
0200000600
0300000400
0180000C00
0080000800
00C0001800
0040003000
0020002000
0030006000
001000C000
001800C000
000C018000
0004010000
0006030000
0002060000
0003040000
00018C0000
0000880000
0000D80000
0000700000
0000600000
0000200000
0000200000
0000200000
0000200000
0000200000
0000200000
0000200000
0000200000
0000200000
0000200000
0000200000
0000200000
0000200000
0000200000
0000200000
0000200000
0000200000
0000200000
0000200000
0000200000
0000200000
0000200000
0000200000
0000200000
0000200000
0000200000
0000200000
0000200000
ENDCHAR
STARTCHAR 005A
ENCODING 90
SWIDTH 440 0
DWIDTH 37 0
BBX 33 57 2 0
BITMAP
3FFFFFFF00
3FFFFFFF00
0000000300
0000000200
0000000600
0000000400
0000000C00
0000000800
0000001800
0000003000
0000002000
0000006000
0000004000
000000C000
0000008000
0000010000
0000030000
0000020000
0000060000
0000040000
00000C0000
0000180000
0000100000
0000300000
0000200000
0000600000
0000400000
0000C00000
0001800000
0001000000
0003000000
0002000000
0006000000
0004000000
000C000000
0018000000
0010000000
0030000000
0020000000
0060000000
00C0000000
0080000000
0180000000
0100000000
0300000000
0200000000
0600000000
0C00000000
0800000000
1800000000
1000000000
3000000000
2000000000
6000000000
C000000000
FFFFFFFF80
FFFFFFFF80
ENDCHAR
STARTCHAR 005B
ENCODING 91
SWIDTH 166 0
DWIDTH 14 0
BBX 7 76 6 -15
BITMAP
FE
FE
80
80
80
80
80
80
80
80
80
80
80
80
80
80
80
80
80
80
80
80
80
80
80
80
80
80
80
80
80
80
80
80
80
80
80
80
80
80
80
80
80
80
80
80
80
80
80
80
80
80
80
80
80
80
80
80
80
80
80
80
80
80
80
80
80
80
80
80
80
80
80
80
80
FE
ENDCHAR
STARTCHAR 005C
ENCODING 92
SWIDTH 250 0
DWIDTH 21 0
BBX 20 58 0 1
BITMAP
800000
800000
C00000
400000
400000
600000
200000
200000
300000
100000
100000
080000
080000
080000
040000
040000
040000
020000
020000
020000
010000
010000
010000
008000
008000
00C000
004000
004000
006000
002000
002000
003000
001000
001000
001800
000800
000800
000C00
000400
000400
000600
000200
000200
000300
000100
000100
000180
000080
000080
0000C0
000040
000040
000060
000020
000020
000030
000010
000010
ENDCHAR
STARTCHAR 005D
ENCODING 93
SWIDTH 166 0
DWIDTH 14 0
BBX 7 76 1 -15
BITMAP
FE
FE
06
06
06
06
06
06
06
06
06
06
06
06
06
06
06
06
06
06
06
06
06
06
06
06
06
06
02
02
02
02
02
02
02
02
02
02
02
02
02
02
02
02
02
02
02
02
02
02
02
02
02
02
02
02
02
02
02
02
02
02
02
02
02
02
02
02
02
02
02
02
06
06
06
FE
ENDCHAR
STARTCHAR 005E
ENCODING 94
SWIDTH 214 0
DWIDTH 18 0
BBX 10 11 4 43
BITMAP
0C00
1C00
1400
1200
2200
2300
6100
4100
4180
8080
80C0
ENDCHAR
STARTCHAR 005F
ENCODING 95
SWIDTH 369 0
DWIDTH 31 0
BBX 31 4 0 -9
BITMAP
FFFFFFFE
FFFFFFFE
FFFFFFFE
FFFFFFFE
ENDCHAR
STARTCHAR 0060
ENCODING 96
SWIDTH 130 0
DWIDTH 11 0
BBX 8 11 2 45
BITMAP
80
C0
60
60
30
10
18
0C
04
06
03
ENDCHAR
STARTCHAR 0061
ENCODING 97
SWIDTH 392 0
DWIDTH 33 0
BBX 27 43 2 -1
BITMAP
003F8020
00FFE020
03803820
06001C20
0C000620
08000220
18000320
10000120
300000A0
200000A0
600000E0
40000060
40000060
C0000060
C0000060
80000020
80000020
80000020
80000020
80000020
80000020
80000020
80000020
80000020
80000020
80000020
80000020
80000020
80000060
C0000060
40000060
400000E0
600000A0
200000A0
200001A0
30000120
18000320
08000620
0C000C20
06001820
03807020
00FFE020
003F0000
ENDCHAR
STARTCHAR 0062
ENCODING 98
SWIDTH 392 0
DWIDTH 33 0
BBX 28 58 3 -1
BITMAP
C0000000
C0000000
C0000000
C0000000
C0000000
C0000000
C0000000
C0000000
C0000000
C0000000
C0000000
C0000000
C0000000
C0000000
C0000000
C01FC000
C07FF000
C1C01800
C3000E00
C6000200
C4000300
C8000180
D8000080
D00000C0
D0000040
E0000040
E0000060
E0000020
C0000020
C0000020
C0000020
C0000030
C0000010
C0000010
C0000010
C0000010
C0000010
C0000010
C0000010
C0000010
C0000010
C0000030
C0000030
C0000020
C0000020
E0000020
E0000060
E0000040
D0000040
D00000C0
C8000080
CC000180
C4000300
C2000600
C3800E00
C0C03800
C07FF000
000F8000
ENDCHAR
STARTCHAR 0063
ENCODING 99
SWIDTH 369 0
DWIDTH 31 0
BBX 27 43 2 -1
BITMAP
001FC000
007FF000
01C01C00
03000600
06000200
0C000100
08000180
18000080
100000C0
30000040
20000040
60000040
40000000
40000000
40000000
C0000000
C0000000
80000000
80000000
80000000
80000000
80000000
80000000
80000000
80000000
80000000
80000000
C0000000
C0000000
40000000
40000060
40000060
60000040
20000040
300000C0
10000080
18000180
0C000300
04000600
07000C00
01C03800
00FFF000
001F8000
ENDCHAR
STARTCHAR 0064
ENCODING 100
SWIDTH 392 0
DWIDTH 33 0
BBX 27 58 2 -1
BITMAP
00000020
00000020
00000020
00000020
00000020
00000020
00000020
00000020
00000020
00000020
00000020
00000020
00000020
00000020
00000020
003F8020
00FFE020
03803820
06001C20
0C000620
08000220
18000320
10000120
300000A0
200000A0
600000E0
40000060
40000060
C0000060
C0000060
80000020
80000020
80000020
80000020
80000020
80000020
80000020
80000020
80000020
80000020
80000020
80000020
80000020
80000060
C0000060
40000060
400000E0
600000A0
200000A0
200001A0
30000120
18000320
08000620
0C000C20
06001820
03807020
00FFE020
003F0000
ENDCHAR
STARTCHAR 0065
ENCODING 101
SWIDTH 369 0
DWIDTH 31 0
BBX 28 43 2 -1
BITMAP
003F8000
00FFF000
03803800
06000C00
0C000600
08000300
18000180
30000180
200000C0
200000C0
40000040
40000060
40000060
C0000060
80000020
80000020
80000020
80000020
80000030
80000030
FFFFFFF0
FFFFFFF0
80000000
80000000
80000000
80000000
80000000
80000000
80000000
80000000
C0000000
40000040
40000040
400000C0
20000080
20000180
10000100
18000300
0C000600
06000C00
03803800
01FFE000
003F8000
ENDCHAR
STARTCHAR 0066
ENCODING 102
SWIDTH 190 0
DWIDTH 16 0
BBX 17 56 2 -1
BITMAP
000780
003F80
007000
00C000
018000
030000
020000
060000
040000
040000
0C0000
080000
080000
080000
080000
080000
080000
080000
080000
FFF000
FFF000
080000
080000
080000
080000
080000
080000
080000
080000
080000
080000
080000
080000
080000
080000
080000
080000
080000
080000
080000
080000
080000
080000
080000
080000
080000
080000
080000
080000
080000
080000
080000
080000
080000
080000
080000
ENDCHAR
STARTCHAR 0067
ENCODING 103
SWIDTH 380 0
DWIDTH 32 0
BBX 27 57 2 -16
BITMAP
003F8000
00FFE020
03807020
06001820
0C000C20
08000620
18000220
30000320
30000120
200001A0
600000A0
400000A0
400000E0
C0000060
C0000060
80000060
80000060
80000060
80000060
80000060
80000020
80000020
80000060
80000060
80000060
80000060
80000060
C0000060
40000060
400000E0
400000A0
600000A0
200001A0
30000120
10000320
18000620
0C000420
06000C20
03003820
01E1E020
007F8020
00000020
00000060
00000060
20000060
20000040
20000040
20000040
200000C0
30000080
10000180
18000100
0C000300
06000600
03801C00
01FFF000
003FC000
ENDCHAR
STARTCHAR 0068
ENCODING 104
SWIDTH 369 0
DWIDTH 31 0
BBX 24 57 3 0
BITMAP
C00000
C00000
C00000
C00000
C00000
C00000
C00000
C00000
C00000
C00000
C00000
C00000
C00000
C00000
C00000
C03F80
C0FFE0
C38070
C60018
CC000C
C80004
D80006
D00002
F00003
E00003
E00001
E00001
C00001
C00001
C00001
C00001
C00001
C00001
C00001
C00001
C00001
C00001
C00001
C00001
C00001
C00001
C00001
C00001
C00001
C00001
C00001
C00001
C00001
C00001
C00001
C00001
C00001
C00001
C00001
C00001
C00001
C00001
ENDCHAR
STARTCHAR 0069
ENCODING 105
SWIDTH 95 0
DWIDTH 8 0
BBX 2 57 3 1
BITMAP
C0
C0
C0
C0
C0
C0
00
00
00
00
00
00
00
00
00
00
C0
C0
C0
C0
C0
C0
C0
C0
C0
C0
C0
C0
C0
C0
C0
C0
C0
C0
C0
C0
C0
C0
C0
C0
C0
C0
C0
C0
C0
C0
C0
C0
C0
C0
C0
C0
C0
C0
C0
C0
C0
ENDCHAR
STARTCHAR 006A
ENCODING 106
SWIDTH 95 0
DWIDTH 8 0
BBX 14 72 -9 -15
BITMAP
000C
000C
000C
000C
000C
000C
0000
0000
0000
0000
0000
0000
0000
0000
0000
0000
0008
0008
0008
0008
0008
0008
0008
0008
0008
0008
0008
0008
0008
0008
0008
0008
0008
0008
0008
0008
0008
0008
0008
0008
0008
0008
0008
0008
0008
0008
0008
0008
0008
0008
0008
0008
0008
0008
0008
0008
0008
0008
0008
0008
0008
0008
0018
0010
0010
0030
0060
0040
01C0
0380
7E00
F800
ENDCHAR
STARTCHAR 006B
ENCODING 107
SWIDTH 369 0
DWIDTH 31 0
BBX 26 57 3 0
BITMAP
C0000000
C0000000
C0000000
C0000000
C0000000
C0000000
C0000000
C0000000
C0000000
C0000000
C0000000
C0000000
C0000000
C0000000
C0000000
C0000000
C0000380
C0000700
C0000600
C0000C00
C0001800
C0003000
C0006000
C000C000
C0018000
C0030000
C0060000
C00C0000
C0180000
C0300000
C0600000
C0C00000
C1E00000
C3A00000
C3300000
C6180000
CC080000
D80C0000
F0060000
E0020000
C0030000
C0010000
C0018000
C000C000
C0004000
C0006000
C0003000
C0001000
C0001800
C0000C00
C0000400
C0000600
C0000200
C0000300
C0000180
C0000080
C00000C0
ENDCHAR
STARTCHAR 006C
ENCODING 108
SWIDTH 95 0
DWIDTH 8 0
BBX 2 57 3 0
BITMAP
C0
C0
C0
C0
C0
C0
C0
C0
C0
C0
C0
C0
C0
C0
C0
C0
C0
C0
C0
C0
C0
C0
C0
C0
C0
C0
C0
C0
C0
C0
C0
C0
C0
C0
C0
C0
C0
C0
C0
C0
C0
C0
C0
C0
C0
C0
C0
C0
C0
C0
C0
C0
C0
C0
C0
C0
C0
ENDCHAR
STARTCHAR 006D
ENCODING 109
SWIDTH 571 0
DWIDTH 48 0
BBX 42 42 3 0
BITMAP
007E000FE000
C1FF803FF800
C300C0700C00
C60060C00600
CC0030800300
C80011000100
D0001B000180
D0001A000180
E0000A000080
E0000A000080
E0000C000080
C0000C0000C0
C0000C0000C0
C0000C0000C0
C0000C0000C0
C0000C0000C0
C0000C0000C0
C0000C0000C0
C0000C0000C0
C0000C0000C0
C0000C0000C0
C0000C0000C0
C0000C0000C0
C0000C0000C0
C0000C0000C0
C0000C0000C0
C0000C0000C0
C0000C0000C0
C0000C0000C0
C0000C0000C0
C0000C0000C0
C0000C0000C0
C0000C0000C0
C0000C0000C0
C0000C0000C0
C0000C0000C0
C0000C0000C0
C0000C0000C0
C0000C0000C0
C0000C0000C0
C0000C0000C0
C0000C0000C0
ENDCHAR
STARTCHAR 006E
ENCODING 110
SWIDTH 369 0
DWIDTH 31 0
BBX 24 42 3 0
BITMAP
003F80
C0FFE0
C38070
C60018
CC000C
C80004
D80006
D00002
F00003
E00003
E00001
E00001
C00001
C00001
C00001
C00001
C00001
C00001
C00001
C00001
C00001
C00001
C00001
C00001
C00001
C00001
C00001
C00001
C00001
C00001
C00001
C00001
C00001
C00001
C00001
C00001
C00001
C00001
C00001
C00001
C00001
C00001
ENDCHAR
STARTCHAR 006F
ENCODING 111
SWIDTH 380 0
DWIDTH 32 0
BBX 28 43 2 -1
BITMAP
003FC000
00FFF000
01C01C00
07000E00
06000300
0C000100
18000180
10000080
300000C0
20000040
60000060
40000020
40000020
C0000030
C0000030
80000010
80000010
80000010
80000010
80000010
80000010
80000010
80000010
80000010
80000010
80000010
80000010
80000010
C0000030
40000030
40000020
40000020
60000060
20000040
300000C0
10000080
18000180
0C000300
06000600
07000E00
01C03800
00FFF000
001F8000
ENDCHAR
STARTCHAR 0070
ENCODING 112
SWIDTH 392 0
DWIDTH 33 0
BBX 28 56 3 -15
BITMAP
001FC000
C07FF000
C1C01C00
C3000E00
C6000200
C4000300
CC000180
D8000080
D00000C0
D0000040
E0000040
E0000060
E0000020
E0000020
C0000020
C0000030
C0000030
C0000010
C0000010
C0000010
C0000010
C0000010
C0000010
C0000010
C0000010
C0000030
C0000030
C0000020
C0000020
C0000020
E0000020
E0000060
E0000040
D0000040
D00000C0
D8000080
C8000180
C4000300
C6000600
C3000E00
C1C01800
C07FF000
C01F8000
C0000000
C0000000
C0000000
C0000000
C0000000
C0000000
C0000000
C0000000
C0000000
C0000000
C0000000
C0000000
C0000000
ENDCHAR
STARTCHAR 0071
ENCODING 113
SWIDTH 392 0
DWIDTH 33 0
BBX 27 56 2 -15
BITMAP
003F8000
00FFE020
03803820
06001C20
0C000E20
08000620
18000320
10000120
200001A0
200000A0
600000A0
40000060
40000060
C0000060
C0000060
80000020
80000020
80000020
80000020
80000020
80000020
80000020
80000020
80000020
80000020
80000020
80000020
80000020
C0000020
40000060
40000060
40000060
600000A0
200000A0
300000A0
10000120
18000320
08000220
0C000620
06000C20
03803820
00FFE020
003F8020
00000020
00000020
00000020
00000020
00000020
00000020
00000020
00000020
00000020
00000020
00000020
00000020
00000020
ENDCHAR
STARTCHAR 0072
ENCODING 114
SWIDTH 226 0
DWIDTH 19 0
BBX 14 42 3 0
BITMAP
001C
C07C
C1C0
C300
C600
C400
CC00
D800
D800
D000
F000
F000
E000
E000
E000
E000
C000
C000
C000
C000
C000
C000
C000
C000
C000
C000
C000
C000
C000
C000
C000
C000
C000
C000
C000
C000
C000
C000
C000
C000
C000
C000
ENDCHAR
STARTCHAR 0073
ENCODING 115
SWIDTH 345 0
DWIDTH 29 0
BBX 24 43 2 -1
BITMAP
00FF00
03FFC0
070070
0C0038
180018
18000C
300004
300006
200006
200002
200002
200002
200002
200000
200000
300000
100000
180000
0E0000
078000
03F800
007F80
0007E0
000070
000018
00000C
000006
000006
C00002
C00002
400002
400003
400003
400002
600002
600002
200006
300006
18000C
0C0018
070078
03FFE0
00FF80
ENDCHAR
STARTCHAR 0074
ENCODING 116
SWIDTH 178 0
DWIDTH 15 0
BBX 13 52 1 0
BITMAP
0200
0200
0200
0200
0200
0200
0200
0200
0200
0200
0200
0200
0200
FFF8
FFF8
0200
0200
0200
0200
0200
0200
0200
0200
0200
0200
0200
0200
0200
0200
0200
0200
0200
0200
0200
0200
0200
0200
0200
0200
0200
0200
0200
0200
0200
0200
0200
0200
0200
0200
0200
0200
0200
ENDCHAR
STARTCHAR 0075
ENCODING 117
SWIDTH 369 0
DWIDTH 31 0
BBX 24 42 3 -1
BITMAP
C00001
C00001
C00001
C00001
C00001
C00001
C00001
C00001
C00001
C00001
C00001
C00001
C00001
C00001
C00001
C00001
C00001
C00001
C00001
C00001
C00001
C00001
C00001
C00001
C00001
C00001
C00001
C00001
C00001
400003
400003
400003
400003
600005
600005
20000D
300019
180011
1C0071
0F00C1
03FF81
00FE00
ENDCHAR
STARTCHAR 0076
ENCODING 118
SWIDTH 333 0
DWIDTH 28 0
BBX 26 41 1 0
BITMAP
80000040
800000C0
C00000C0
40000080
40000080
60000180
20000100
20000100
30000300
10000200
10000200
18000200
18000600
08000400
0C000400
0C000C00
04000800
04000800
06001800
02001800
02001000
03001000
01003000
01002000
01802000
00806000
00804000
00C04000
00404000
0040C000
00608000
00208000
00218000
00210000
00110000
00110000
00130000
001A0000
000A0000
000E0000
000C0000
ENDCHAR
STARTCHAR 0077
ENCODING 119
SWIDTH 535 0
DWIDTH 45 0
BBX 42 41 2 0
BITMAP
8000C00000C0
C00040000080
C00060000080
400060000180
400020000180
600020000100
200030000100
200010000300
300010000200
100018000200
100008000200
180008000600
18000C000400
08000C000400
08000C000C00
0C001C000800
04001E000800
040012000800
060012001800
020033001000
020021001000
020021003000
030021003000
010061802000
010040802000
018040806000
0080C0C04000
008080404000
00C080404000
00408060C000
004180208000
004100208000
002100218000
002100310000
002200110000
003200110000
0012001B0000
0016000A0000
001C000A0000
000C000A0000
000C00040000
ENDCHAR
STARTCHAR 0078
ENCODING 120
SWIDTH 321 0
DWIDTH 27 0
BBX 26 41 1 0
BITMAP
40000180
60000100
20000300
30000200
18000600
08000C00
0C000800
04001800
06001000
02003000
01006000
01804000
0080C000
00C08000
00418000
00230000
00220000
00160000
001C0000
000C0000
000C0000
00160000
00320000
00230000
00610000
00418000
0080C000
01804000
01006000
03002000
02003000
04001800
0C000800
08000C00
18000400
10000600
20000300
60000100
40000180
C0000080
800000C0
ENDCHAR
STARTCHAR 0079
ENCODING 121
SWIDTH 369 0
DWIDTH 31 0
BBX 25 56 2 -16
BITMAP
60000080
60000080
60000080
60000080
60000080
60000080
60000080
60000080
60000080
60000080
60000080
60000080
60000080
60000080
60000080
60000080
60000080
60000080
60000080
60000080
60000080
60000080
60000080
60000080
60000080
60000080
60000080
60000080
60000080
20000180
20000180
20000180
20000180
30000280
30000280
10000680
18000C80
0C000880
0E003880
07806080
01FFC080
007F0080
00000080
80000080
80000080
C0000180
40000180
40000100
40000300
60000300
20000600
10000C00
18001C00
0E007000
03FFE000
00FF8000
ENDCHAR
STARTCHAR 007A
ENCODING 122
SWIDTH 333 0
DWIDTH 28 0
BBX 24 41 2 0
BITMAP
7FFFFE
7FFFFE
000006
000004
00000C
000008
000018
000030
000020
000060
000040
0000C0
000180
000100
000300
000200
000600
000C00
000800
001800
001000
003000
006000
004000
00C000
008000
018000
030000
020000
060000
040000
0C0000
080000
100000
300000
200000
600000
400000
800000
FFFFFF
FFFFFF
ENDCHAR
STARTCHAR 007B
ENCODING 123
SWIDTH 250 0
DWIDTH 21 0
BBX 10 76 5 -15
BITMAP
00C0
03C0
0300
0600
0400
0400
0400
0400
0400
0400
0400
0400
0400
0400
0400
0400
0400
0400
0400
0400
0400
0400
0400
0400
0400
0400
0400
0400
0400
0400
0400
0C00
0C00
0800
0800
1800
3000
E000
C000
6000
3000
1800
0800
0C00
0C00
0C00
0400
0400
0400
0400
0400
0400
0400
0400
0400
0400
0400
0400
0400
0400
0400
0400
0400
0400
0400
0400
0400
0400
0400
0400
0400
0400
0600
0600
0380
01C0
ENDCHAR
STARTCHAR 007C
ENCODING 124
SWIDTH 166 0
DWIDTH 14 0
BBX 1 62 6 -2
BITMAP
80
80
80
80
80
80
80
80
80
80
80
80
80
80
80
80
80
80
80
80
80
80
80
80
80
80
80
80
80
80
80
80
80
80
80
80
80
80
80
80
80
80
80
80
80
80
80
80
80
80
80
80
80
80
80
80
80
80
80
80
80
80
ENDCHAR
STARTCHAR 007D
ENCODING 125
SWIDTH 250 0
DWIDTH 21 0
BBX 10 76 5 -15
BITMAP
C000
F000
3000
1800
0800
0800
0800
0800
0C00
0C00
0C00
0C00
0C00
0C00
0C00
0C00
0C00
0C00
0C00
0C00
0C00
0C00
0C00
0C00
0C00
0C00
0C00
0C00
0C00
0C00
0C00
0C00
0400
0400
0400
0600
0300
01C0
00C0
0180
0300
0600
0400
0400
0C00
0C00
0C00
0C00
0C00
0C00
0C00
0C00
0C00
0C00
0C00
0C00
0C00
0C00
0C00
0C00
0C00
0C00
0C00
0C00
0C00
0C00
0C00
0C00
0800
0800
0800
0800
0800
1800
7000
E000
ENDCHAR
STARTCHAR 007E
ENCODING 126
SWIDTH 380 0
DWIDTH 32 0
BBX 26 9 3 30
BITMAP
078000C0
1FE000C0
38F00180
303C0180
600E0180
60078300
6001FE00
C0007C00
C0000000
ENDCHAR
STARTCHAR 00A0
ENCODING 160
SWIDTH 369 0
DWIDTH 31 0
BBX 0 0 0 0
BITMAP
ENDCHAR
STARTCHAR 00A1
ENCODING 161
SWIDTH 130 0
DWIDTH 11 0
BBX 1 57 5 -8
BITMAP
80
80
80
80
80
80
80
00
00
00
00
00
00
00
00
80
80
80
80
80
80
80
80
80
80
80
80
80
80
80
80
80
80
80
80
80
80
80
80
80
80
80
80
80
80
80
80
80
80
80
80
80
80
80
80
80
80
ENDCHAR
STARTCHAR 00A2
ENCODING 162
SWIDTH 369 0
DWIDTH 31 0
BBX 27 49 2 -3
BITMAP
00000400
00000C00
00000800
00000800
001FD800
007FF000
01C01C00
03003600
06002300
0C002300
08006180
18004080
100040C0
3000C040
20008040
60008040
40018000
40010000
40010000
C0030000
C0020000
80020000
80060000
80040000
80040000
800C0000
80080000
80080000
80180000
80100000
80100000
C0300000
C0200000
40200000
40600060
40400060
60400040
20C00040
308000C0
10800080
19800180
0D000300
07000600
03000C00
03C03800
02FFF000
041F8000
04000000
04000000
ENDCHAR
STARTCHAR 00A4
ENCODING 164
SWIDTH 404 0
DWIDTH 34 0
BBX 25 32 4 16
BITMAP
00000080
C0000180
60000300
20000200
10000600
183E0C00
0CFF9800
0780D000
03006000
02002000
04001000
04001000
0C000800
08000800
08000800
08000800
08000800
08000800
08000800
08000800
0C000800
04001000
04001000
02003000
07007000
0580D000
0CFF8800
183E0C00
30000600
20000200
40000100
C0000080
ENDCHAR
STARTCHAR 00A5
ENCODING 165
SWIDTH 452 0
DWIDTH 38 0
BBX 36 57 1 0
BITMAP
8000000010
C000000020
6000000060
2000000040
30000000C0
1000000080
0800000100
0C00000300
0400000200
0600000600
0300000C00
0100000800
0180001800
0080001000
00C0003000
0060006000
0020004000
003000C000
0018018000
0008010000
000C030000
0004020000
0006060000
00030C0000
0001080000
0001980000
0000B00000
0000F00000
0000600000
0000600000
0000600000
0000600000
0000600000
0000600000
07FFFFFE00
07FFE00000
0000600000
0000600000
0000600000
0000600000
0000600000
0000600000
0000600000
0000600000
0000600000
07FFFFFE00
0000600000
0000600000
0000600000
0000600000
0000600000
0000600000
0000600000
0000600000
0000600000
0000600000
0000600000
ENDCHAR
STARTCHAR 00A6
ENCODING 166
SWIDTH 166 0
DWIDTH 14 0
BBX 1 60 6 -1
BITMAP
80
80
80
80
80
80
80
80
80
80
80
80
80
80
80
80
80
80
80
80
80
80
80
80
80
80
00
00
00
00
00
00
00
80
80
80
80
80
80
80
80
80
80
80
80
80
80
80
80
80
80
80
80
80
80
80
80
80
80
80
ENDCHAR
STARTCHAR 00A7
ENCODING 167
SWIDTH 404 0
DWIDTH 34 0
BBX 22 64 6 -10
BITMAP
007800
03FF80
0E01C0
1C0060
100030
300018
200008
600008
400004
400004
400004
400004
400004
400000
400000
600000
200000
300000
180000
0F0000
03E000
01FE00
07FF80
1C01E0
300070
600038
400018
40000C
80000C
800004
800004
800004
800004
800004
C00004
C00004
40000C
60000C
300018
380030
1C0070
0783C0
01FF80
003F00
000380
0000E0
000030
000010
000018
000008
000008
800008
80000C
80000C
800008
C00008
400008
400018
600010
300030
180060
0C00C0
07FF80
01FE00
ENDCHAR
STARTCHAR 00A8
ENCODING 168
SWIDTH 154 0
DWIDTH 13 0
BBX 8 6 2 46
BITMAP
C1
C1
C1
C1
C1
81
ENDCHAR
STARTCHAR 00A9
ENCODING 169
SWIDTH 392 0
DWIDTH 33 0
BBX 28 36 3 20
BITMAP
007FC000
01F1F000
03801C00
06000E00
0C000600
18000300
10000180
301F8080
607FE0C0
60E06040
40803060
C1801020
C1001820
83000820
82000830
82000030
82000030
82000030
82000030
82000030
82000030
82000830
83000820
C3001820
C1001060
41803060
60C02040
6070E0C0
303FC080
300F0180
18000300
0C000600
06000E00
03803800
01FFF000
007FC000
ENDCHAR
STARTCHAR 00AA
ENCODING 170
SWIDTH 261 0
DWIDTH 22 0
BBX 17 26 3 29
BITMAP
07E180
1FF980
380D80
300580
600380
400380
C00380
C00180
800180
800180
800180
800180
800180
800180
800180
800180
800180
800180
C00180
C00380
400380
600780
300D80
381D80
1FF980
07E180
ENDCHAR
STARTCHAR 00AB
ENCODING 171
SWIDTH 273 0
DWIDTH 23 0
BBX 16 20 4 13
BITMAP
0001
0083
0106
020C
0618
0C10
1830
3060
60C0
C180
C180
60C0
3060
1820
0C10
0408
0204
0102
0081
0001
ENDCHAR
STARTCHAR 00AC
ENCODING 172
SWIDTH 416 0
DWIDTH 35 0
BBX 29 14 3 12
BITMAP
FFFFFFF8
00000018
00000018
00000018
00000018
00000018
00000018
00000018
00000018
00000018
00000018
00000018
00000018
00000018
ENDCHAR
STARTCHAR 00AD
ENCODING 173
SWIDTH 416 0
DWIDTH 35 0
BBX 28 2 3 19
BITMAP
FFFFFFF0
FFFFFFF0
ENDCHAR
STARTCHAR 00AE
ENCODING 174
SWIDTH 380 0
DWIDTH 32 0
BBX 28 36 2 20
BITMAP
007FE000
01F8F800
03801C00
06000600
0C000300
08000180
18000080
307F80C0
207FE040
60407060
60401020
40401020
40401830
C0401830
C0401810
80401010
80403010
8041E010
807FE010
8040E010
80403010
C0401010
C0401030
C0401030
40401020
60401020
60401060
20401040
304010C0
18000180
08000180
0C000300
07000E00
03801C00
00FFF800
003FC000
ENDCHAR
STARTCHAR 00AF
ENCODING 175
SWIDTH 214 0
DWIDTH 18 0
BBX 14 2 2 50
BITMAP
FFFC
FFFC
ENDCHAR
STARTCHAR 00B0
ENCODING 176
SWIDTH 297 0
DWIDTH 25 0
BBX 17 23 4 33
BITMAP
07E000
0FF800
180C00
300600
600200
400100
C00100
800180
800080
800080
800080
800080
800080
800080
800080
800100
C00100
400300
600200
300400
181C00
0FF000
01C000
ENDCHAR
STARTCHAR 00B1
ENCODING 177
SWIDTH 440 0
DWIDTH 37 0
BBX 23 36 7 0
BITMAP
001000
001000
001000
001000
001000
001000
001000
001000
001000
001000
001000
001000
001000
001000
FFFFFE
FFFFFE
001000
001000
001000
001000
001000
001000
001000
001000
001000
001000
001000
001000
001000
001000
000000
000000
000000
000000
000000
FFFFFE
ENDCHAR
STARTCHAR 00B2
ENCODING 178
SWIDTH 273 0
DWIDTH 23 0
BBX 19 35 2 21
BITMAP
00E000
07FC00
0E0F00
180300
300180
200080
6000C0
6000C0
4000C0
4000C0
4000C0
400080
000180
000300
000600
000C00
001800
007000
00E000
01C000
030000
060000
0C0000
180000
180000
300000
200000
600000
400000
400000
C00000
C00000
C00000
FFFFE0
FFFFE0
ENDCHAR
STARTCHAR 00B3
ENCODING 179
SWIDTH 297 0
DWIDTH 25 0
BBX 19 35 3 21
BITMAP
006000
07FE00
0E0F00
180180
3000C0
600040
600060
400060
400060
400060
C00060
C00060
000040
0000C0
000180
00FF00
00FE00
000700
000180
0000C0
000060
000060
800020
800020
800020
800020
800020
C00020
C00060
400060
6000C0
300180
1C0780
0FFE00
01F800
ENDCHAR
STARTCHAR 00B4
ENCODING 180
SWIDTH 142 0
DWIDTH 12 0
BBX 8 12 2 44
BITMAP
01
01
03
06
04
0C
18
18
30
20
60
C0
ENDCHAR
STARTCHAR 00B5
ENCODING 181
SWIDTH 369 0
DWIDTH 31 0
BBX 24 55 3 -15
BITMAP
C00001
C00001
C00001
C00001
C00001
C00001
C00001
C00001
C00001
C00001
C00001
C00001
C00001
C00001
C00001
C00001
C00001
C00001
C00001
C00001
C00001
C00001
C00001
C00001
C00001
C00001
C00001
C00001
C00001
C00001
E00001
E00001
E00003
F00003
D00002
D80006
C80004
CC000C
C60018
C38070
C1FFE0
C03F60
C00040
C00040
C00060
C00060
C00038
C0001E
C00002
C00000
C00000
C00000
C00000
C00000
C00000
ENDCHAR
STARTCHAR 00B6
ENCODING 182
SWIDTH 345 0
DWIDTH 29 0
BBX 22 68 4 -11
BITMAP
003FFC
00FFFC
03FE0C
07FE0C
0FFE0C
1FFE0C
1FFE0C
3FFE0C
3FFE0C
7FFE0C
7FFE0C
FFFE0C
FFFE0C
FFFE0C
FFFE0C
FFFE0C
FFFE0C
FFFE0C
FFFE0C
FFFE0C
FFFE0C
FFFE0C
FFFE0C
FFFE0C
FFFE0C
7FFE0C
7FFE0C
3FFE0C
3FFE0C
1FFE0C
1FFE0C
0FFE0C
07FE0C
03FE0C
01FE0C
003E0C
00020C
00020C
00020C
00020C
00020C
00020C
00020C
00020C
00020C
00020C
00020C
00020C
00020C
00020C
00020C
00020C
00020C
00020C
00020C
00020C
00020C
00020C
00020C
00020C
00020C
00020C
00020C
00020C
00020C
00020C
00020C
00020C
ENDCHAR
STARTCHAR 00B7
ENCODING 183
SWIDTH 142 0
DWIDTH 12 0
BBX 2 7 6 23
BITMAP
80
C0
C0
C0
C0
C0
C0
ENDCHAR
STARTCHAR 00B8
ENCODING 184
SWIDTH 178 0
DWIDTH 15 0
BBX 11 16 2 -15
BITMAP
0C00
0C00
0C00
0C00
0C00
0F80
01C0
0060
0020
0020
0020
0020
0060
C0C0
FF80
0C00
ENDCHAR
STARTCHAR 00B9
ENCODING 185
SWIDTH 202 0
DWIDTH 17 0
BBX 10 33 2 21
BITMAP
0040
00C0
01C0
0740
0E40
1C40
3840
7040
E040
0040
0040
0040
0040
0040
0040
0040
0040
0040
0040
0040
0040
0040
0040
0040
0040
0040
0040
0040
0040
0040
0040
0040
0040
ENDCHAR
STARTCHAR 00BA
ENCODING 186
SWIDTH 285 0
DWIDTH 24 0
BBX 19 26 3 30
BITMAP
03F800
0E1C00
180600
300300
200180
600080
4000C0
C00040
800040
800040
800060
800060
800060
800060
800060
800040
800040
800040
C00040
400080
600080
200100
100300
1C0E00
07F800
00C000
ENDCHAR
STARTCHAR 00BB
ENCODING 187
SWIDTH 261 0
DWIDTH 22 0
BBX 16 19 4 13
BITMAP
8000
C100
6080
20C0
1060
1830
0C18
060C
0306
0183
0183
0306
060C
0C18
0830
1060
20C0
4080
8100
ENDCHAR
STARTCHAR 00BC
ENCODING 188
SWIDTH 571 0
DWIDTH 48 0
BBX 40 58 4 1
BITMAP
0000001000
0000001000
0000003000
0080002000
0180002000
0380006000
0680004000
0C80004000
188000C000
3080008000
6080008000
C080018000
0080010000
0080010000
0080030000
0080020000
0080020000
0080060000
0080040000
0080040000
00800C0000
0080080000
0080080000
0080180000
0080100000
0080101020
0080301020
0080202020
0080202020
0080606020
0080404020
008040C020
0080C08020
0080808020
0080818020
0081810020
0001030020
0001020020
0003020020
0002060020
0002040020
00060C0020
0004080020
0004080020
000C100020
00081FFFFF
0008000020
0018000020
0010000020
0010000020
0030000020
0020000020
0020000020
0060000020
0040000020
0040000020
00C0000020
0080000020
ENDCHAR
STARTCHAR 00BD
ENCODING 189
SWIDTH 559 0
DWIDTH 47 0
BBX 41 58 3 1
BITMAP
000000080000
000000100000
000000100000
00C000100000
01C000200000
03C000200000
06C000200000
0CC000400000
18C000400000
30C000400000
60C000800000
C0C000800000
00C000800000
00C001000000
00C001000000
00C003000000
00C002000000
00C002000000
00C006000000
00C004000000
00C004000000
00C00C000000
00C008000000
00C008000000
00C01803C000
00C0101FF800
00C010300C00
00C030600600
00C020400200
00C020C00100
00C060800100
00C040800100
00C041800100
00C0C1000100
00C081000100
00C081000300
000180000600
000100000400
000100001800
000300003000
000200006000
00020000C000
000600018000
000400060000
0004000C0000
000C00180000
000800100000
000800300000
001800600000
001000400000
001000C00000
003000800000
002000800000
002001000000
006001000000
004001000000
004001000000
00C001FFFF80
ENDCHAR
STARTCHAR 00BE
ENCODING 190
SWIDTH 630 0
DWIDTH 53 0
BBX 47 58 3 1
BITMAP
000000002000
000000004000
000000004000
03FF00004000
060380008000
0800C0008000
100060018000
300020010000
200020010000
200020030000
600020020000
600020020000
400020060000
400020040000
000020040000
0000400C0000
000080080000
000F00080000
007E00180000
000180100000
0000C0100000
000060300000
000020200000
000030200000
000010600000
C00010406080
C00010404080
400010C0C080
400010808080
400010808080
400021818080
600021010080
300061030080
1800C3020080
0C0382020080
07FE02060080
006006040080
0000040C0080
000004080080
00000C080080
000008100080
000008100080
000018300080
000010200080
000010200080
0000307FFFFE
000020000080
000020000080
000060000080
000040000080
000040000080
0000C0000080
000080000080
000080000080
000180000080
000100000080
000100000080
000300000080
ENDCHAR
STARTCHAR 00BF
ENCODING 191
SWIDTH 369 0
DWIDTH 31 0
BBX 26 58 2 -7
BITMAP
000C0000
000C0000
000C0000
000C0000
000C0000
000C0000
00040000
00000000
00000000
00000000
00000000
00000000
00000000
00000000
000C0000
000C0000
000C0000
000C0000
000C0000
00080000
00080000
00180000
00180000
00100000
00300000
00200000
00600000
00400000
00C00000
01800000
03000000
06000000
06000000
0C000000
18000000
10000000
30000000
20000000
60000000
40000000
40000000
40000000
C0000080
C00000C0
C0000080
C0000080
C0000080
40000080
40000180
40000100
60000300
20000200
30000600
18000C00
0C001800
07007000
03FFE000
007F0000
ENDCHAR
STARTCHAR 00C0
ENCODING 192
SWIDTH 476 0
DWIDTH 40 0
BBX 36 72 2 1
BITMAP
0002000000
0003000000
0001800000
0000800000
0000C00000
0000400000
0000200000
0000300000
0000100000
0000180000
00000C0000
0000040000
0000000000
0000000000
0000000000
0000600000
0000600000
0000700000
0000D00000
0000D00000
0000980000
0001880000
0001880000
00010C0000
00030C0000
0003040000
0002040000
0006060000
0006020000
0004020000
0004030000
000C010000
0008010000
0008018000
0018008000
0010008000
001000C000
003000C000
0030004000
0020004000
0060006000
0060002000
0040002000
00C0003000
00C0001000
0080001000
0180001800
0180001800
0100000800
0100000800
0300000C00
0200000400
03FFFFFC00
0600000600
0400000200
0400000200
0C00000300
0800000100
0800000100
1800000100
1800000180
1000000080
3000000080
30000000C0
2000000040
6000000040
6000000060
4000000020
4000000020
C000000030
8000000030
8000000010
ENDCHAR
STARTCHAR 00C1
ENCODING 193
SWIDTH 476 0
DWIDTH 40 0
BBX 36 72 2 1
BITMAP
0000040000
00000C0000
0000180000
0000100000
0000300000
0000600000
0000400000
0000C00000
0001800000
0001000000
0003000000
0002000000
0000000000
0000000000
0000000000
0000600000
0000600000
0000700000
0000D00000
0000D00000
0000980000
0001880000
0001880000
00010C0000
00030C0000
0003040000
0002040000
0006060000
0006020000
0004020000
0004030000
000C010000
0008010000
0008018000
0018008000
0010008000
001000C000
003000C000
0030004000
0020004000
0060006000
0060002000
0040002000
00C0003000
00C0001000
0080001000
0180001800
0180001800
0100000800
0100000800
0300000C00
0200000400
03FFFFFC00
0600000600
0400000200
0400000200
0C00000300
0800000100
0800000100
1800000100
1800000180
1000000080
3000000080
30000000C0
2000000040
6000000040
6000000060
4000000020
4000000020
C000000030
8000000030
8000000010
ENDCHAR
STARTCHAR 00C2
ENCODING 194
SWIDTH 476 0
DWIDTH 40 0
BBX 36 71 2 1
BITMAP
0000600000
0000E00000
0000B00000
0001900000
0001180000
0003080000
0002040000
0006040000
0004020000
000C020000
0008010000
0000000000
0000000000
0000000000
0000600000
0000600000
0000700000
0000D00000
0000D00000
0000980000
0001880000
0001880000
00010C0000
00030C0000
0003040000
0002040000
0006060000
0006020000
0004020000
0004030000
000C010000
0008010000
0008018000
0018008000
0010008000
001000C000
003000C000
0030004000
0020004000
0060006000
0060002000
0040002000
00C0003000
00C0001000
0080001000
0180001800
0180001800
0100000800
0100000800
0300000C00
0200000400
03FFFFFC00
0600000600
0400000200
0400000200
0C00000300
0800000100
0800000100
1800000100
1800000180
1000000080
3000000080
30000000C0
2000000040
6000000040
6000000060
4000000020
4000000020
C000000030
8000000030
8000000010
ENDCHAR
STARTCHAR 00C3
ENCODING 195
SWIDTH 476 0
DWIDTH 40 0
BBX 36 67 2 1
BITMAP
000F004000
000DC04000
0018604000
001038C000
00300F8000
0000070000
0000000000
0000000000
0000000000
0000000000
0000600000
0000600000
0000700000
0000D00000
0000D00000
0000980000
0001880000
0001880000
00010C0000
00030C0000
0003040000
0002040000
0006060000
0006020000
0004020000
0004030000
000C010000
0008010000
0008018000
0018008000
0010008000
001000C000
003000C000
0030004000
0020004000
0060006000
0060002000
0040002000
00C0003000
00C0001000
0080001000
0180001800
0180001800
0100000800
0100000800
0300000C00
0200000400
03FFFFFC00
0600000600
0400000200
0400000200
0C00000300
0800000100
0800000100
1800000100
1800000180
1000000080
3000000080
30000000C0
2000000040
6000000040
6000000060
4000000020
4000000020
C000000030
8000000030
8000000010
ENDCHAR
STARTCHAR 00C4
ENCODING 196
SWIDTH 476 0
DWIDTH 40 0
BBX 36 67 2 1
BITMAP
0002040000
0002040000
0002040000
0002040000
0002040000
0002040000
0000000000
0000000000
0000000000
0000000000
0000600000
0000600000
0000700000
0000D00000
0000D00000
0000980000
0001880000
0001880000
00010C0000
00030C0000
0003040000
0002040000
0006060000
0006020000
0004020000
0004030000
000C010000
0008010000
0008018000
0018008000
0010008000
001000C000
003000C000
0030004000
0020004000
0060006000
0060002000
0040002000
00C0003000
00C0001000
0080001000
0180001800
0180001800
0100000800
0100000800
0300000C00
0200000400
03FFFFFC00
0600000600
0400000200
0400000200
0C00000300
0800000100
0800000100
1800000100
1800000180
1000000080
3000000080
30000000C0
2000000040
6000000040
6000000060
4000000020
4000000020
C000000030
8000000030
8000000010
ENDCHAR
STARTCHAR 00C5
ENCODING 197
SWIDTH 476 0
DWIDTH 40 0
BBX 36 73 2 1
BITMAP
0000F00000
0001F80000
00030C0000
0002040000
0006040000
0006060000
0006060000
0002040000
0002040000
00030C0000
0001F80000
0000F00000
0000000000
0000000000
0000000000
0000000000
0000600000
0000600000
0000700000
0000D00000
0000D00000
0000980000
0001880000
0001880000
00010C0000
00030C0000
0003040000
0002040000
0006060000
0006020000
0004020000
0004030000
000C010000
0008010000
0008018000
0018008000
0010008000
001000C000
003000C000
0030004000
0020004000
0060006000
0060002000
0040002000
00C0003000
00C0001000
0080001000
0180001800
0180001800
0100000800
0100000800
0300000C00
0200000400
03FFFFFC00
0600000600
0400000200
0400000200
0C00000300
0800000100
0800000100
1800000100
1800000180
1000000080
3000000080
30000000C0
2000000040
6000000040
6000000060
4000000020
4000000020
C000000030
8000000030
8000000010
ENDCHAR
STARTCHAR 00C6
ENCODING 198
SWIDTH 750 0
DWIDTH 63 0
BBX 61 57 0 0
BITMAP
000000003FFFFFF0
000000007FFFFFF0
0000000050000000
00000000D0000000
0000000090000000
0000000190000000
0000000310000000
0000000210000000
0000000610000000
0000000410000000
0000000810000000
0000001810000000
0000001010000000
0000003010000000
0000006010000000
0000004010000000
000000C010000000
0000008010000000
0000010010000000
0000030010000000
0000020010000000
0000060010000000
0000040010000000
0000080010000000
0000180010000000
0000100010000000
00003FFFFE000000
00007FFFFFFFFF80
0000400010000000
0000C00010000000
0000800010000000
0001000010000000
0003000010000000
0002000010000000
0006000010000000
000C000010000000
0008000010000000
0018000010000000
0010000010000000
0020000010000000
0060000010000000
0040000010000000
00C0000010000000
0080000010000000
0100000010000000
0300000010000000
0200000010000000
0600000010000000
0C00000010000000
0800000010000000
1800000010000000
1000000010000000
2000000010000000
6000000010000000
4000000010000000
C00000001FFFFFF8
800000001FFFFFF8
ENDCHAR
STARTCHAR 00C7
ENCODING 199
SWIDTH 500 0
DWIDTH 42 0
BBX 36 73 3 -15
BITMAP
0000080000
0003FFE000
000F807800
003C000E00
0070000300
00C0000180
01800000C0
0300000060
0600000020
0600000030
0C00000010
0800000000
1800000000
1000000000
3000000000
2000000000
2000000000
6000000000
6000000000
4000000000
4000000000
4000000000
4000000000
C000000000
8000000000
8000000000
8000000000
8000000000
8000000000
8000000000
8000000000
8000000000
8000000000
8000000000
8000000000
C000000000
C000000000
4000000000
4000000000
4000000000
4000000000
6000000000
2000000000
2000000000
3000000000
1000000000
1800000000
1800000000
0C00000030
0C00000020
0600000060
03000000C0
0180000180
01C0000300
00E0000600
0038001C00
001F00F800
0007FFC000
00003C0000
0000200000
0000200000
0000200000
00003E0000
0000070000
0000018000
0000018000
0000008000
0000018000
0000018000
0000018000
0003070000
0003FE0000
0000300000
ENDCHAR
STARTCHAR 00C8
ENCODING 200
SWIDTH 392 0
DWIDTH 33 0
BBX 29 71 3 1
BITMAP
00200000
00300000
00100000
00180000
000C0000
00040000
00060000
00030000
00010000
00018000
00008000
00000000
00000000
00000000
FFFFFFF8
FFFFFFF8
C0000000
C0000000
C0000000
C0000000
C0000000
C0000000
C0000000
C0000000
C0000000
C0000000
C0000000
C0000000
C0000000
C0000000
C0000000
C0000000
C0000000
C0000000
C0000000
C0000000
C0000000
C0000000
C0000000
C0000000
C0000000
FFFFFFC0
C0000000
C0000000
C0000000
C0000000
C0000000
C0000000
C0000000
C0000000
C0000000
C0000000
C0000000
C0000000
C0000000
C0000000
C0000000
C0000000
C0000000
C0000000
C0000000
C0000000
C0000000
C0000000
C0000000
C0000000
C0000000
C0000000
C0000000
FFFFFFF8
FFFFFFF8
ENDCHAR
STARTCHAR 00C9
ENCODING 201
SWIDTH 392 0
DWIDTH 33 0
BBX 29 71 3 1
BITMAP
0000C000
00018000
00018000
00030000
00020000
00060000
000C0000
00080000
00180000
00300000
00200000
00200000
00000000
00000000
FFFFFFF8
FFFFFFF8
C0000000
C0000000
C0000000
C0000000
C0000000
C0000000
C0000000
C0000000
C0000000
C0000000
C0000000
C0000000
C0000000
C0000000
C0000000
C0000000
C0000000
C0000000
C0000000
C0000000
C0000000
C0000000
C0000000
C0000000
C0000000
FFFFFFC0
C0000000
C0000000
C0000000
C0000000
C0000000
C0000000
C0000000
C0000000
C0000000
C0000000
C0000000
C0000000
C0000000
C0000000
C0000000
C0000000
C0000000
C0000000
C0000000
C0000000
C0000000
C0000000
C0000000
C0000000
C0000000
C0000000
C0000000
FFFFFFF8
FFFFFFF8
ENDCHAR
STARTCHAR 00CA
ENCODING 202
SWIDTH 392 0
DWIDTH 33 0
BBX 29 72 3 0
BITMAP
00040000
000E0000
000A0000
001B0000
00110000
00218000
00208000
00404000
00406000
00802000
00803000
00000000
00000000
00000000
00000000
FFFFFFF8
FFFFFFF8
C0000000
C0000000
C0000000
C0000000
C0000000
C0000000
C0000000
C0000000
C0000000
C0000000
C0000000
C0000000
C0000000
C0000000
C0000000
C0000000
C0000000
C0000000
C0000000
C0000000
C0000000
C0000000
C0000000
C0000000
C0000000
FFFFFFC0
C0000000
C0000000
C0000000
C0000000
C0000000
C0000000
C0000000
C0000000
C0000000
C0000000
C0000000
C0000000
C0000000
C0000000
C0000000
C0000000
C0000000
C0000000
C0000000
C0000000
C0000000
C0000000
C0000000
C0000000
C0000000
C0000000
C0000000
FFFFFFF8
FFFFFFF8
ENDCHAR
STARTCHAR 00CB
ENCODING 203
SWIDTH 392 0
DWIDTH 33 0
BBX 29 68 3 0
BITMAP
00208000
0020C000
0020C000
0020C000
0020C000
0020C000
00200000
00000000
00000000
00000000
00000000
FFFFFFF8
FFFFFFF8
C0000000
C0000000
C0000000
C0000000
C0000000
C0000000
C0000000
C0000000
C0000000
C0000000
C0000000
C0000000
C0000000
C0000000
C0000000
C0000000
C0000000
C0000000
C0000000
C0000000
C0000000
C0000000
C0000000
C0000000
C0000000
FFFFFFC0
C0000000
C0000000
C0000000
C0000000
C0000000
C0000000
C0000000
C0000000
C0000000
C0000000
C0000000
C0000000
C0000000
C0000000
C0000000
C0000000
C0000000
C0000000
C0000000
C0000000
C0000000
C0000000
C0000000
C0000000
C0000000
C0000000
C0000000
FFFFFFF8
FFFFFFF8
ENDCHAR
STARTCHAR 00CC
ENCODING 204
SWIDTH 95 0
DWIDTH 8 0
BBX 8 73 0 0
BITMAP
80
C0
40
60
20
30
18
08
0C
06
02
03
00
00
00
00
18
18
18
18
18
18
18
18
18
18
18
18
18
18
18
18
18
18
18
18
18
18
18
18
18
18
18
18
18
18
18
18
18
18
18
18
18
18
18
18
18
18
18
18
18
18
18
18
18
18
18
18
18
18
18
18
18
ENDCHAR
STARTCHAR 00CD
ENCODING 205
SWIDTH 95 0
DWIDTH 8 0
BBX 8 72 0 1
BITMAP
03
02
06
0C
0C
18
10
30
60
40
C0
80
00
00
00
18
18
18
18
18
18
18
18
18
18
18
18
18
18
18
18
18
18
18
18
18
18
18
18
18
18
18
18
18
18
18
18
18
18
18
18
18
18
18
18
18
18
18
18
18
18
18
18
18
18
18
18
18
18
18
18
18
ENDCHAR
STARTCHAR 00CE
ENCODING 206
SWIDTH 95 0
DWIDTH 8 0
BBX 12 72 -2 0
BITMAP
0600
0600
0F00
0900
1980
1080
20C0
2040
4060
4020
8030
8010
0000
0000
0000
0600
0600
0600
0600
0600
0600
0600
0600
0600
0600
0600
0600
0600
0600
0600
0600
0600
0600
0600
0600
0600
0600
0600
0600
0600
0600
0600
0600
0600
0600
0600
0600
0600
0600
0600
0600
0600
0600
0600
0600
0600
0600
0600
0600
0600
0600
0600
0600
0600
0600
0600
0600
0600
0600
0600
0600
0600
ENDCHAR
STARTCHAR 00CF
ENCODING 207
SWIDTH 95 0
DWIDTH 8 0
BBX 8 68 0 1
BITMAP
81
81
81
81
81
81
00
00
00
00
00
18
18
18
18
18
18
18
18
18
18
18
18
18
18
18
18
18
18
18
18
18
18
18
18
18
18
18
18
18
18
18
18
18
18
18
18
18
18
18
18
18
18
18
18
18
18
18
18
18
18
18
18
18
18
18
18
18
ENDCHAR
STARTCHAR 00D0
ENCODING 208
SWIDTH 476 0
DWIDTH 40 0
BBX 36 57 1 0
BITMAP
3FFFFC0000
3FFFFF8000
300001E000
3000003000
3000001800
3000000C00
3000000600
3000000300
3000000100
3000000180
3000000080
30000000C0
3000000040
3000000040
3000000060
3000000020
3000000020
3000000020
3000000030
3000000010
3000000010
3000000010
3000000010
3000000010
3000000010
3000000010
3000000010
3000000010
FFFE000010
3000000010
3000000010
3000000010
3000000010
3000000010
3000000010
3000000010
3000000010
3000000030
3000000030
3000000020
3000000020
3000000060
3000000040
3000000040
30000000C0
3000000080
3000000180
3000000100
3000000300
3000000600
3000000C00
3000001800
3000003000
300000E000
3000038000
3FFFFE0000
3FFFF00000
ENDCHAR
STARTCHAR 00D1
ENCODING 209
SWIDTH 476 0
DWIDTH 40 0
BBX 34 67 3 0
BITMAP
000C000000
001F008000
0023818000
0060C10000
0040730000
00401E0000
0000000000
0000000000
0000000000
0000000000
C0000000C0
E0000000C0
E0000000C0
D0000000C0
D0000000C0
C8000000C0
CC000000C0
C4000000C0
C6000000C0
C2000000C0
C3000000C0
C1000000C0
C1800000C0
C0800000C0
C0400000C0
C0400000C0
C0200000C0
C0300000C0
C0100000C0
C0180000C0
C0080000C0
C00C0000C0
C0040000C0
C0060000C0
C0020000C0
C0010000C0
C0018000C0
C0008000C0
C000C000C0
C0004000C0
C0006000C0
C0002000C0
C0003000C0
C0001800C0
C0001800C0
C0000C00C0
C0000400C0
C0000600C0
C0000200C0
C0000300C0
C0000100C0
C0000180C0
C00000C0C0
C00000C0C0
C0000060C0
C0000020C0
C0000030C0
C0000010C0
C0000018C0
C0000008C0
C000000CC0
C0000004C0
C0000006C0
C0000002C0
C0000003C0
C0000001C0
C0000000C0
ENDCHAR
STARTCHAR 00D2
ENCODING 210
SWIDTH 535 0
DWIDTH 45 0
BBX 41 73 2 0
BITMAP
0000C0000000
000040000000
000060000000
000030000000
000010000000
000018000000
00000C000000
000004000000
000006000000
000003000000
000001000000
000001000000
000000000000
000000000000
000000000000
00007E000000
0007FFE00000
001E007C0000
0078000E0000
00E000030000
018000018000
03000000C000
020000006000
060000003000
0C0000001000
080000001800
180000000800
100000000C00
300000000400
200000000600
200000000600
600000000200
600000000200
400000000300
400000000100
400000000100
C00000000100
C00000000100
C00000000100
800000000100
800000000100
800000000180
800000000180
800000000180
800000000180
800000000180
800000000180
800000000100
C00000000100
C00000000100
C00000000100
400000000100
400000000100
400000000300
600000000200
600000000200
200000000200
200000000600
300000000400
100000000C00
180000000C00
180000000800
0C0000001800
040000003000
060000002000
030000006000
01800000C000
01C000018000
00E000070000
0038000E0000
001F00780000
0003FFE00000
00001C000000
ENDCHAR
STARTCHAR 00D3
ENCODING 211
SWIDTH 535 0
DWIDTH 45 0
BBX 41 74 2 0
BITMAP
000001000000
000001000000
000003000000
000006000000
000004000000
00000C000000
000018000000
000010000000
000030000000
000060000000
000040000000
0000C0000000
000000000000
000000000000
000000000000
000000000000
00007E000000
0007FFE00000
001E007C0000
0078000E0000
00E000030000
018000018000
03000000C000
020000006000
060000003000
0C0000001000
080000001800
180000000800
100000000C00
300000000400
200000000600
200000000600
600000000200
600000000200
400000000300
400000000100
400000000100
C00000000100
C00000000100
C00000000100
800000000100
800000000100
800000000180
800000000180
800000000180
800000000180
800000000180
800000000180
800000000100
C00000000100
C00000000100
C00000000100
400000000100
400000000100
400000000300
600000000200
600000000200
200000000200
200000000600
300000000400
100000000C00
180000000C00
180000000800
0C0000001800
040000003000
060000002000
030000006000
01800000C000
01C000018000
00E000070000
0038000E0000
001F00780000
0003FFE00000
00001C000000
ENDCHAR
STARTCHAR 00D4
ENCODING 212
SWIDTH 535 0
DWIDTH 45 0
BBX 41 74 2 -1
BITMAP
000018000000
000018000000
00003C000000
000024000000
000066000000
000042000000
0000C1000000
000081000000
000180800000
000100C00000
000300400000
000200600000
000000000000
000000000000
000000000000
000000000000
00007E000000
0007FFE00000
001E007C0000
0078000E0000
00E000030000
018000018000
03000000C000
020000006000
060000003000
0C0000001000
080000001800
180000000800
100000000C00
300000000400
200000000600
200000000600
600000000200
600000000200
400000000300
400000000100
400000000100
C00000000100
C00000000100
C00000000100
800000000100
800000000100
800000000180
800000000180
800000000180
800000000180
800000000180
800000000180
800000000100
C00000000100
C00000000100
C00000000100
400000000100
400000000100
400000000300
600000000200
600000000200
200000000200
200000000600
300000000400
100000000C00
180000000C00
180000000800
0C0000001800
040000003000
060000002000
030000006000
01800000C000
01C000018000
00E000070000
0038000E0000
001F00780000
0003FFE00000
00001C000000
ENDCHAR
STARTCHAR 00D5
ENCODING 213
SWIDTH 535 0
DWIDTH 45 0
BBX 41 70 2 -1
BITMAP
000080100000
0003E0100000
000670100000
00041C100000
000C0E200000
000C03E00000
000000800000
000000000000
000000000000
000000000000
000000000000
000000000000
00007E000000
0007FFE00000
001E007C0000
0078000E0000
00E000030000
018000018000
03000000C000
020000006000
060000003000
0C0000001000
080000001800
180000000800
100000000C00
300000000400
200000000600
200000000600
600000000200
600000000200
400000000300
400000000100
400000000100
C00000000100
C00000000100
C00000000100
800000000100
800000000100
800000000180
800000000180
800000000180
800000000180
800000000180
800000000180
800000000100
C00000000100
C00000000100
C00000000100
400000000100
400000000100
400000000300
600000000200
600000000200
200000000200
200000000600
300000000400
100000000C00
180000000C00
180000000800
0C0000001800
040000003000
060000002000
030000006000
01800000C000
01C000018000
00E000070000
0038000E0000
001F00780000
0003FFE00000
00001C000000
ENDCHAR
STARTCHAR 00D6
ENCODING 214
SWIDTH 535 0
DWIDTH 45 0
BBX 41 69 2 0
BITMAP
000081000000
000081000000
000081000000
000081000000
000081000000
000081000000
000000000000
000000000000
000000000000
000000000000
000000000000
00007E000000
0007FFE00000
001E007C0000
0078000E0000
00E000030000
018000018000
03000000C000
020000006000
060000003000
0C0000001000
080000001800
180000000800
100000000C00
300000000400
200000000600
200000000600
600000000200
600000000200
400000000300
400000000100
400000000100
C00000000100
C00000000100
C00000000100
800000000100
800000000100
800000000180
800000000180
800000000180
800000000180
800000000180
800000000180
800000000100
C00000000100
C00000000100
C00000000100
400000000100
400000000100
400000000300
600000000200
600000000200
200000000200
200000000600
300000000400
100000000C00
180000000C00
180000000800
0C0000001800
040000003000
060000002000
030000006000
01800000C000
01C000018000
00E000070000
0038000E0000
001F00780000
0003FFE00000
00001C000000
ENDCHAR
STARTCHAR 00D7
ENCODING 215
SWIDTH 345 0
DWIDTH 29 0
BBX 17 22 6 10
BITMAP
800080
C00180
600300
300600
100C00
180800
0C1800
063000
026000
014000
01C000
01C000
036000
066000
043000
0C1800
180C00
300400
200600
600300
C00180
800080
ENDCHAR
STARTCHAR 00D8
ENCODING 216
SWIDTH 535 0
DWIDTH 45 0
BBX 41 61 2 -2
BITMAP
000000020000
000000020000
00007C040000
0007FFE40000
001E007C0000
0078000E0000
00E0000B0000
018000198000
03000010C000
020000106000
060000303000
0C0000201000
080000201800
180000600800
100000400C00
300000400400
200000C00600
200000800200
600000800200
600001800200
400001000300
400001000100
400003000100
C00002000100
C00002000100
C00006000100
800004000100
800004000180
80000C000180
800008000180
800008000180
800018000180
800010000180
800010000180
800030000100
C00020000100
C00020000100
C00060000100
400040000100
400040000100
4000C0000300
600080000200
600080000200
200180000200
200100000600
300100000400
100300000C00
180200000C00
080200000800
0C0600001800
060400003000
060400002000
030C00006000
01880000C000
00C800018000
007800070000
0038000E0000
001F00780000
0023FFE00000
00201C000000
002000000000
ENDCHAR
STARTCHAR 00D9
ENCODING 217
SWIDTH 464 0
DWIDTH 39 0
BBX 33 73 3 0
BITMAP
0004000000
0004000000
0006000000
0003000000
0001000000
0001800000
0000C00000
0000C00000
0000600000
0000200000
0000300000
0000180000
0000000000
0000000000
0000000000
C000000180
C000000180
C000000180
C000000180
C000000180
C000000180
C000000180
C000000180
C000000180
C000000180
C000000180
C000000180
C000000180
C000000180
C000000180
C000000180
C000000180
C000000180
C000000180
C000000180
C000000180
C000000180
C000000180
C000000180
C000000180
C000000180
C000000180
C000000180
C000000180
C000000180
C000000180
C000000180
C000000180
C000000180
C000000180
C000000180
C000000180
C000000180
C000000180
C000000100
4000000100
4000000100
4000000100
4000000100
6000000300
6000000300
2000000200
2000000200
3000000600
1000000400
1800000C00
0C00001800
0E00003800
0700007000
038001E000
00F0078000
003FFE0000
0001800000
ENDCHAR
STARTCHAR 00DA
ENCODING 218
SWIDTH 464 0
DWIDTH 39 0
BBX 33 73 3 0
BITMAP
0000100000
0000100000
0000300000
0000600000
0000400000
0000C00000
0001800000
0001000000
0003000000
0006000000
0006000000
0004000000
0000000000
0000000000
0000000000
C000000180
C000000180
C000000180
C000000180
C000000180
C000000180
C000000180
C000000180
C000000180
C000000180
C000000180
C000000180
C000000180
C000000180
C000000180
C000000180
C000000180
C000000180
C000000180
C000000180
C000000180
C000000180
C000000180
C000000180
C000000180
C000000180
C000000180
C000000180
C000000180
C000000180
C000000180
C000000180
C000000180
C000000180
C000000180
C000000180
C000000180
C000000180
C000000180
C000000100
4000000100
4000000100
4000000100
4000000100
6000000300
6000000300
2000000200
2000000200
3000000600
1000000400
1800000C00
0C00001800
0E00003800
0700007000
038001E000
00F0078000
003FFE0000
0001800000
ENDCHAR
STARTCHAR 00DB
ENCODING 219
SWIDTH 464 0
DWIDTH 39 0
BBX 33 73 3 -1
BITMAP
0000800000
0001C00000
0001400000
0003600000
0002200000
0006300000
0004100000
0008180000
0008080000
00100C0000
0010040000
0020020000
0000000000
0000000000
0000000000
C000000180
C000000180
C000000180
C000000180
C000000180
C000000180
C000000180
C000000180
C000000180
C000000180
C000000180
C000000180
C000000180
C000000180
C000000180
C000000180
C000000180
C000000180
C000000180
C000000180
C000000180
C000000180
C000000180
C000000180
C000000180
C000000180
C000000180
C000000180
C000000180
C000000180
C000000180
C000000180
C000000180
C000000180
C000000180
C000000180
C000000180
C000000180
C000000180
C000000100
4000000100
4000000100
4000000100
4000000100
6000000300
6000000300
2000000200
2000000200
3000000600
1000000400
1800000C00
0C00001800
0E00003800
0700007000
038001E000
00F0078000
003FFE0000
0001800000
ENDCHAR
STARTCHAR 00DC
ENCODING 220
SWIDTH 464 0
DWIDTH 39 0
BBX 33 69 3 0
BITMAP
0004180000
0004180000
0004180000
0004180000
0004180000
0004100000
0000000000
0000000000
0000000000
0000000000
0000000000
C000000180
C000000180
C000000180
C000000180
C000000180
C000000180
C000000180
C000000180
C000000180
C000000180
C000000180
C000000180
C000000180
C000000180
C000000180
C000000180
C000000180
C000000180
C000000180
C000000180
C000000180
C000000180
C000000180
C000000180
C000000180
C000000180
C000000180
C000000180
C000000180
C000000180
C000000180
C000000180
C000000180
C000000180
C000000180
C000000180
C000000180
C000000180
C000000180
C000000100
4000000100
4000000100
4000000100
4000000100
6000000300
6000000300
2000000200
2000000200
3000000600
1000000400
1800000C00
0C00001800
0E00003800
0700007000
038001E000
00F0078000
003FFE0000
0001800000
ENDCHAR
STARTCHAR 00DD
ENCODING 221
SWIDTH 464 0
DWIDTH 39 0
BBX 36 72 1 1
BITMAP
0000040000
00000C0000
0000080000
0000180000
0000300000
0000200000
0000600000
0000C00000
0000800000
0001800000
0003000000
0002000000
0000000000
0000000000
0000000000
C000000010
4000000030
6000000020
3000000060
10000000C0
1800000080
0800000180
0400000100
0600000300
0200000600
0300000400
0180000C00
0080000800
00C0001800
0040003000
0060002000
0030006000
001000C000
0018008000
0008018000
0004010000
0006030000
0002060000
0003040000
00018C0000
0000980000
0000D80000
0000700000
0000600000
0000200000
0000200000
0000200000
0000200000
0000200000
0000200000
0000200000
0000200000
0000200000
0000200000
0000200000
0000200000
0000200000
0000200000
0000200000
0000200000
0000200000
0000200000
0000200000
0000200000
0000200000
0000200000
0000200000
0000200000
0000200000
0000200000
0000200000
0000200000
ENDCHAR
STARTCHAR 00DE
ENCODING 222
SWIDTH 297 0
DWIDTH 25 0
BBX 19 57 3 0
BITMAP
C00000
C00000
C00000
C00000
C00000
C00000
C00000
C00000
C00000
C00000
C00000
C00000
C00000
FFF800
FFFE00
C00300
C00180
C00080
C000C0
C000C0
C00040
C00040
C00040
C00060
C00060
C00060
C00060
C00060
C00060
C00060
C00060
C00060
C00060
C00040
C00040
C00040
C000C0
C00080
C00180
C00300
C00600
FFFC00
C00000
C00000
C00000
C00000
C00000
C00000
C00000
C00000
C00000
C00000
C00000
C00000
C00000
C00000
C00000
ENDCHAR
STARTCHAR 00DF
ENCODING 223
SWIDTH 357 0
DWIDTH 30 0
BBX 27 61 1 -3
BITMAP
003F8000
01FFF000
03803800
06000C00
0C000600
0C000300
08000300
18000100
10000100
10000180
10000180
10000180
10000180
10000180
10000100
30000100
30000100
30000300
30000200
30000400
30000C00
30007000
F01FC000
F01FC000
3000F000
30003800
30000C00
30000600
30000200
30000100
30000180
30000080
30000080
30000040
30000040
30000040
30000040
30000060
30000020
30000020
30000020
30000020
30000020
30000020
30000020
30000060
30000060
30000040
30000040
30000040
300000C0
30000080
30000180
30000100
30000300
30000600
30000C00
30003800
0001F000
001FC000
00100000
ENDCHAR
STARTCHAR 00E0
ENCODING 224
SWIDTH 380 0
DWIDTH 32 0
BBX 27 58 2 -1
BITMAP
00400000
00400000
00600000
00300000
00100000
00180000
000C0000
00040000
00060000
00030000
00010000
00018000
00000000
00000000
00000000
003F8020
00FFE020
03803820
06001C20
0C000620
08000220
18000320
10000120
300000A0
200000A0
600000E0
40000060
40000060
C0000060
C0000060
80000020
80000020
80000020
80000020
80000020
80000020
80000020
80000020
80000020
80000020
80000020
80000020
80000020
80000060
C0000060
40000060
400000E0
600000A0
200000A0
200001A0
30000120
18000320
08000620
0C000C20
06001820
03807020
00FFE020
003F0000
ENDCHAR
STARTCHAR 00E1
ENCODING 225
SWIDTH 380 0
DWIDTH 32 0
BBX 28 57 2 0
BITMAP
0000C000
00018000
00010000
00030000
00060000
00040000
000C0000
00180000
00180000
00300000
00200000
00000000
00000000
00000000
001FC010
00FFF010
01C01810
03000E10
06000610
0C000310
08000190
18000090
10000090
30000050
20000050
20000050
60000030
60000030
40000030
40000030
40000030
40000010
40000010
C0000010
C0000010
C0000010
C0000010
C0000010
40000010
40000010
40000030
40000030
40000030
40000030
60000030
20000050
20000050
300000D0
10000090
18000190
08000110
0C000310
06000610
03000C10
01C03810
00FFF010
001F8000
ENDCHAR
STARTCHAR 00E2
ENCODING 226
SWIDTH 380 0
DWIDTH 32 0
BBX 28 58 2 -1
BITMAP
00040000
000E0000
000A0000
001B0000
00110000
00318000
00208000
0060C000
00404000
00C06000
00802000
01803000
00000000
00000000
00000000
001FC010
00FFF010
01C01810
03000E10
06000610
0C000310
08000190
18000090
10000090
30000050
20000050
20000050
60000030
60000030
40000030
40000030
40000030
40000010
40000010
C0000010
C0000010
C0000010
C0000010
C0000010
40000010
40000010
40000030
40000030
40000030
40000030
60000030
20000050
20000050
300000D0
10000090
18000190
08000110
0C000310
06000610
03000C10
01C03810
00FFF010
001F8000
ENDCHAR
STARTCHAR 00E3
ENCODING 227
SWIDTH 380 0
DWIDTH 32 0
BBX 28 54 2 -1
BITMAP
00400000
01F00C00
01180800
020E0800
02031800
0201F000
02004000
00000000
00000000
00000000
00000000
001FC010
00FFF010
01C01810
03000E10
06000610
0C000310
08000190
18000090
10000090
30000050
20000050
20000050
60000030
60000030
40000030
40000030
40000030
40000010
40000010
C0000010
C0000010
C0000010
C0000010
C0000010
40000010
40000010
40000030
40000030
40000030
40000030
60000030
20000050
20000050
300000D0
10000090
18000190
08000110
0C000310
06000610
03000C10
01C03810
00FFF010
001F8000
ENDCHAR
STARTCHAR 00E4
ENCODING 228
SWIDTH 380 0
DWIDTH 32 0
BBX 28 53 2 0
BITMAP
00304000
00304000
00304000
00304000
00304000
00204000
00000000
00000000
00000000
00000000
001FC010
00FFF010
01C01810
03000E10
06000610
0C000310
08000190
18000090
10000090
30000050
20000050
20000050
60000030
60000030
40000030
40000030
40000030
40000010
40000010
C0000010
C0000010
C0000010
C0000010
C0000010
40000010
40000010
40000030
40000030
40000030
40000030
60000030
20000050
20000050
300000D0
10000090
18000190
08000110
0C000310
06000610
03000C10
01C03810
00FFF010
001F8000
ENDCHAR
STARTCHAR 00E5
ENCODING 229
SWIDTH 380 0
DWIDTH 32 0
BBX 28 60 2 -1
BITMAP
00060000
001F8000
00308000
00204000
00604000
00604000
00604000
00604000
00204000
0020C000
00398000
001F0000
00000000
00000000
00000000
00000000
00000000
001FC010
00FFF010
01C01810
03000E10
06000610
0C000310
08000190
18000090
10000090
30000050
20000050
20000050
60000030
60000030
40000030
40000030
40000030
40000010
40000010
C0000010
C0000010
C0000010
C0000010
C0000010
40000010
40000010
40000030
40000030
40000030
40000030
60000030
20000050
20000050
300000D0
10000090
18000190
08000110
0C000310
06000610
03000C10
01C03810
00FFF010
001F8000
ENDCHAR
STARTCHAR 00E6
ENCODING 230
SWIDTH 690 0
DWIDTH 58 0
BBX 54 43 2 -1
BITMAP
003F802007F000
00FFE0201FFC00
03803820700F00
06001C20C00380
0C0006218001C0
080002230000C0
18000322000060
10000124000030
300000A4000030
200000A8000010
600000E8000018
40000070000018
40000070000008
C000007000000C
C000007000000C
8000003000000C
8000002000000C
8000002000000C
80000020000004
80000020000004
8000003FFFFFFC
8000003FFFFFFC
80000020000000
80000020000000
80000020000000
80000020000000
80000020000000
80000020000000
80000070000000
C0000070000000
40000070000000
400000F0000008
600000B0000018
200000A8000010
200001A8000030
30000124000020
18000324000060
080006220000C0
0C000C23000180
06001821800380
03807020E00E00
00FFE0203FFC00
003F00000FE000
ENDCHAR
STARTCHAR 00E7
ENCODING 231
SWIDTH 369 0
DWIDTH 31 0
BBX 27 57 2 -15
BITMAP
001FC000
007FF000
01C01C00
03000600
06000200
0C000100
08000180
18000080
100000C0
30000040
20000040
60000040
40000000
40000000
40000000
C0000000
C0000000
80000000
80000000
80000000
80000000
80000000
80000000
80000000
80000000
80000000
80000000
C0000000
C0000000
40000000
40000060
40000060
60000040
20000040
300000C0
10000080
18000180
0C000300
04000600
07000C00
01C03800
00FFF000
001F8000
00060000
00060000
00060000
0007C000
0000E000
00003000
00001000
00001000
00001000
00001000
00003000
00707000
003FE000
00020000
ENDCHAR
STARTCHAR 00E8
ENCODING 232
SWIDTH 369 0
DWIDTH 31 0
BBX 28 57 2 0
BITMAP
00600000
00300000
00100000
00180000
000C0000
00040000
00060000
00030000
00010000
00018000
00008000
00000000
00000000
00000000
003F8000
00FFF000
03803800
06000C00
0C000600
08000300
18000180
30000180
200000C0
200000C0
40000040
40000060
40000060
C0000060
80000020
80000020
80000020
80000020
80000030
80000030
FFFFFFF0
FFFFFFF0
80000000
80000000
80000000
80000000
80000000
80000000
80000000
80000000
C0000000
40000040
40000040
400000C0
20000080
20000180
10000100
18000300
0C000600
06000C00
03803800
01FFE000
003F8000
ENDCHAR
STARTCHAR 00E9
ENCODING 233
SWIDTH 369 0
DWIDTH 31 0
BBX 28 57 2 0
BITMAP
00008000
00018000
00010000
00030000
00060000
00040000
000C0000
00180000
00100000
00300000
00600000
00000000
00000000
00000000
003F8000
00FFF000
03803800
06000C00
0C000600
08000300
18000180
30000180
200000C0
200000C0
40000040
40000060
40000060
C0000060
80000020
80000020
80000020
80000020
80000030
80000030
FFFFFFF0
FFFFFFF0
80000000
80000000
80000000
80000000
80000000
80000000
80000000
80000000
C0000000
40000040
40000040
400000C0
20000080
20000180
10000100
18000300
0C000600
06000C00
03803800
01FFE000
003F8000
ENDCHAR
STARTCHAR 00EA
ENCODING 234
SWIDTH 369 0
DWIDTH 31 0
BBX 28 58 2 -1
BITMAP
00040000
000E0000
000A0000
001B0000
00110000
00318000
00208000
0040C000
00404000
00806000
00802000
01003000
00000000
00000000
00000000
003F8000
00FFF000
03803800
06000C00
0C000600
08000300
18000180
30000180
200000C0
200000C0
40000040
40000060
40000060
C0000060
80000020
80000020
80000020
80000020
80000030
80000030
FFFFFFF0
FFFFFFF0
80000000
80000000
80000000
80000000
80000000
80000000
80000000
80000000
C0000000
40000040
40000040
400000C0
20000080
20000180
10000100
18000300
0C000600
06000C00
03803800
01FFE000
003F8000
ENDCHAR
STARTCHAR 00EB
ENCODING 235
SWIDTH 369 0
DWIDTH 31 0
BBX 28 53 2 0
BITMAP
00608000
00608000
00608000
00608000
00608000
00608000
00000000
00000000
00000000
00000000
003F8000
00FFF000
03803800
06000C00
0C000600
08000300
18000180
30000180
200000C0
200000C0
40000040
40000060
40000060
C0000060
80000020
80000020
80000020
80000020
80000030
80000030
FFFFFFF0
FFFFFFF0
80000000
80000000
80000000
80000000
80000000
80000000
80000000
80000000
C0000000
40000040
40000040
400000C0
20000080
20000180
10000100
18000300
0C000600
06000C00
03803800
01FFE000
003F8000
ENDCHAR
STARTCHAR 00EC
ENCODING 236
SWIDTH 95 0
DWIDTH 8 0
BBX 8 56 0 1
BITMAP
80
40
60
20
30
18
08
0C
06
02
03
01
00
00
00
18
18
18
18
18
18
18
18
18
18
18
18
18
18
18
18
18
18
18
18
18
18
18
18
18
18
18
18
18
18
18
18
18
18
18
18
18
18
18
18
18
ENDCHAR
STARTCHAR 00ED
ENCODING 237
SWIDTH 95 0
DWIDTH 8 0
BBX 8 56 0 1
BITMAP
01
03
06
04
0C
18
10
30
60
60
C0
80
00
00
00
18
18
18
18
18
18
18
18
18
18
18
18
18
18
18
18
18
18
18
18
18
18
18
18
18
18
18
18
18
18
18
18
18
18
18
18
18
18
18
18
18
ENDCHAR
STARTCHAR 00EE
ENCODING 238
SWIDTH 95 0
DWIDTH 8 0
BBX 12 57 -2 0
BITMAP
0600
0600
0F00
0900
1980
1080
30C0
2040
6060
4020
4030
8010
0000
0000
0000
0000
0600
0600
0600
0600
0600
0600
0600
0600
0600
0600
0600
0600
0600
0600
0600
0600
0600
0600
0600
0600
0600
0600
0600
0600
0600
0600
0600
0600
0600
0600
0600
0600
0600
0600
0600
0600
0600
0600
0600
0600
0600
ENDCHAR
STARTCHAR 00EF
ENCODING 239
SWIDTH 95 0
DWIDTH 8 0
BBX 8 52 0 1
BITMAP
81
81
81
81
81
81
00
00
00
00
00
18
18
18
18
18
18
18
18
18
18
18
18
18
18
18
18
18
18
18
18
18
18
18
18
18
18
18
18
18
18
18
18
18
18
18
18
18
18
18
18
18
ENDCHAR
STARTCHAR 00F0
ENCODING 240
SWIDTH 392 0
DWIDTH 33 0
BBX 27 58 2 -1
BITMAP
00000020
00000020
00000020
00000020
00000020
00000020
01FFFFE0
01FFFFE0
00000020
00000020
00000020
00000020
00000020
00000020
00000020
003F8020
00FFE020
03803820
06001C20
0C000620
08000220
18000320
10000120
300000A0
200000A0
600000E0
40000060
40000060
C0000060
C0000060
80000020
80000020
80000020
80000020
80000020
80000020
80000020
80000020
80000020
80000020
80000020
80000020
80000020
80000060
C0000060
40000060
400000E0
600000A0
200000A0
200001A0
30000120
18000320
08000620
0C000C20
06001820
03807020
00FFE020
003F0000
ENDCHAR
STARTCHAR 00F1
ENCODING 241
SWIDTH 369 0
DWIDTH 31 0
BBX 24 53 3 0
BITMAP
008000
03E018
023010
061C10
040630
0403E0
040080
000000
000000
000000
000000
003F80
C0FFE0
C38070
C60018
CC000C
C80004
D80006
D00002
F00003
E00003
E00001
E00001
C00001
C00001
C00001
C00001
C00001
C00001
C00001
C00001
C00001
C00001
C00001
C00001
C00001
C00001
C00001
C00001
C00001
C00001
C00001
C00001
C00001
C00001
C00001
C00001
C00001
C00001
C00001
C00001
C00001
C00001
ENDCHAR
STARTCHAR 00F2
ENCODING 242
SWIDTH 380 0
DWIDTH 32 0
BBX 28 57 2 0
BITMAP
00300000
00100000
00180000
000C0000
00040000
00060000
00020000
00030000
00018000
00008000
0000C000
00004000
00000000
00000000
003FC000
00FFF000
01C01C00
07000E00
06000300
0C000100
18000180
10000080
300000C0
20000040
60000060
40000020
40000020
C0000030
C0000030
80000010
80000010
80000010
80000010
80000010
80000010
80000010
80000010
80000010
80000010
80000010
80000010
80000010
C0000030
40000030
40000020
40000020
60000060
20000040
300000C0
10000080
18000180
0C000300
06000600
07000E00
01C03800
00FFF000
001F8000
ENDCHAR
STARTCHAR 00F3
ENCODING 243
SWIDTH 380 0
DWIDTH 32 0
BBX 28 57 2 0
BITMAP
00004000
0000C000
00018000
00010000
00030000
00060000
00040000
000C0000
00080000
00180000
00300000
00200000
00000000
00000000
003FC000
00FFF000
01C01C00
07000E00
06000300
0C000100
18000180
10000080
300000C0
20000040
60000060
40000020
40000020
C0000030
C0000030
80000010
80000010
80000010
80000010
80000010
80000010
80000010
80000010
80000010
80000010
80000010
80000010
80000010
C0000030
40000030
40000020
40000020
60000060
20000040
300000C0
10000080
18000180
0C000300
06000600
07000E00
01C03800
00FFF000
001F8000
ENDCHAR
STARTCHAR 00F4
ENCODING 244
SWIDTH 380 0
DWIDTH 32 0
BBX 28 58 2 -1
BITMAP
00060000
00060000
000F0000
00090000
00198000
00108000
0030C000
00204000
00606000
00402000
00803000
00801000
00000000
00000000
00000000
003FC000
00FFF000
01C01C00
07000E00
06000300
0C000100
18000180
10000080
300000C0
20000040
60000060
40000020
40000020
C0000030
C0000030
80000010
80000010
80000010
80000010
80000010
80000010
80000010
80000010
80000010
80000010
80000010
80000010
80000010
C0000030
40000030
40000020
40000020
60000060
20000040
300000C0
10000080
18000180
0C000300
06000600
07000E00
01C03800
00FFF000
001F8000
ENDCHAR
STARTCHAR 00F5
ENCODING 245
SWIDTH 380 0
DWIDTH 32 0
BBX 28 53 2 0
BITMAP
00F00400
019C0400
03060C00
03038800
0200F000
00002000
00000000
00000000
00000000
00000000
003FC000
00FFF000
01C01C00
07000E00
06000300
0C000100
18000180
10000080
300000C0
20000040
60000060
40000020
40000020
C0000030
C0000030
80000010
80000010
80000010
80000010
80000010
80000010
80000010
80000010
80000010
80000010
80000010
80000010
80000010
C0000030
40000030
40000020
40000020
60000060
20000040
300000C0
10000080
18000180
0C000300
06000600
07000E00
01C03800
00FFF000
001F8000
ENDCHAR
STARTCHAR 00F6
ENCODING 246
SWIDTH 380 0
DWIDTH 32 0
BBX 28 53 2 0
BITMAP
00204000
00204000
00204000
00204000
00204000
00204000
00000000
00000000
00000000
00000000
003FC000
00FFF000
01C01C00
07000E00
06000300
0C000100
18000180
10000080
300000C0
20000040
60000060
40000020
40000020
C0000030
C0000030
80000010
80000010
80000010
80000010
80000010
80000010
80000010
80000010
80000010
80000010
80000010
80000010
80000010
C0000030
40000030
40000020
40000020
60000060
20000040
300000C0
10000080
18000180
0C000300
06000600
07000E00
01C03800
00FFF000
001F8000
ENDCHAR
STARTCHAR 00F7
ENCODING 247
SWIDTH 416 0
DWIDTH 35 0
BBX 28 27 3 7
BITMAP
00020000
00020000
00020000
00020000
00020000
00020000
00020000
00000000
00000000
00000000
00000000
00000000
FFFFFFF0
FFFFFFF0
00000000
00000000
00000000
00000000
00000000
00000000
00020000
00020000
00020000
00020000
00020000
00020000
00020000
ENDCHAR
STARTCHAR 00F8
ENCODING 248
SWIDTH 380 0
DWIDTH 32 0
BBX 28 50 2 -3
BITMAP
00000200
00000600
00000400
00000400
003FCC00
00FFF800
01C03800
07001C00
06001600
0C001300
18002180
10002080
300020C0
20004040
60004060
40004020
40008020
C0008030
C0018030
80010010
80010010
80030010
80020010
80020010
80060010
80040010
80040010
800C0010
80080010
80080010
80180010
80100010
C0100030
C0300030
40200020
40200020
60600060
20400040
304000C0
10C00080
18800180
0C800300
07800600
07000E00
01C03800
03FFF000
021F8000
02000000
06000000
04000000
ENDCHAR
STARTCHAR 00F9
ENCODING 249
SWIDTH 369 0
DWIDTH 31 0
BBX 24 57 3 0
BITMAP
00C000
004000
006000
003000
001000
001800
000C00
000400
000600
000300
000100
000100
000000
000000
000000
C00001
C00001
C00001
C00001
C00001
C00001
C00001
C00001
C00001
C00001
C00001
C00001
C00001
C00001
C00001
C00001
C00001
C00001
C00001
C00001
C00001
C00001
C00001
C00001
C00001
C00001
C00001
C00001
C00001
400003
400003
400003
400003
600005
600005
20000D
300019
180011
1C0071
0F00C1
03FF81
00FE00
ENDCHAR
STARTCHAR 00FA
ENCODING 250
SWIDTH 369 0
DWIDTH 31 0
BBX 24 57 3 0
BITMAP
000180
000300
000200
000600
000C00
000800
001800
003000
002000
006000
004000
000000
000000
000000
000000
C00001
C00001
C00001
C00001
C00001
C00001
C00001
C00001
C00001
C00001
C00001
C00001
C00001
C00001
C00001
C00001
C00001
C00001
C00001
C00001
C00001
C00001
C00001
C00001
C00001
C00001
C00001
C00001
C00001
400003
400003
400003
400003
600005
600005
20000D
300019
180011
1C0071
0F00C1
03FF81
00FE00
ENDCHAR
STARTCHAR 00FB
ENCODING 251
SWIDTH 369 0
DWIDTH 31 0
BBX 24 58 3 -1
BITMAP
000800
001C00
001400
003600
002200
006300
004100
008180
008080
0100C0
010040
020060
000000
000000
000000
000000
C00001
C00001
C00001
C00001
C00001
C00001
C00001
C00001
C00001
C00001
C00001
C00001
C00001
C00001
C00001
C00001
C00001
C00001
C00001
C00001
C00001
C00001
C00001
C00001
C00001
C00001
C00001
C00001
C00001
400003
400003
400003
400003
600005
600005
20000D
300019
180011
1C0071
0F00C1
03FF81
00FE00
ENDCHAR
STARTCHAR 00FC
ENCODING 252
SWIDTH 369 0
DWIDTH 31 0
BBX 24 53 3 0
BITMAP
00C100
00C100
00C100
00C100
00C100
00C100
000000
000000
000000
000000
000000
C00001
C00001
C00001
C00001
C00001
C00001
C00001
C00001
C00001
C00001
C00001
C00001
C00001
C00001
C00001
C00001
C00001
C00001
C00001
C00001
C00001
C00001
C00001
C00001
C00001
C00001
C00001
C00001
C00001
400003
400003
400003
400003
600005
600005
20000D
300019
180011
1C0071
0F00C1
03FF81
00FE00
ENDCHAR
STARTCHAR 00FD
ENCODING 253
SWIDTH 357 0
DWIDTH 30 0
BBX 25 72 2 -16
BITMAP
00008000
00018000
00010000
00030000
00060000
00040000
000C0000
00180000
00100000
00300000
00600000
00400000
00000000
00000000
00000000
00000000
60000080
60000080
60000080
60000080
60000080
60000080
60000080
60000080
60000080
60000080
60000080
60000080
60000080
60000080
60000080
60000080
60000080
60000080
60000080
60000080
60000080
60000080
60000080
60000080
60000080
60000080
60000080
60000080
60000080
20000180
20000180
20000180
20000180
30000280
30000280
10000680
18000C80
0C000880
0E003880
07806080
01FFC080
007F0080
00000080
80000080
80000080
C0000180
40000180
40000100
40000300
60000300
20000600
10000C00
18001C00
0E007000
03FFE000
00FF8000
ENDCHAR
STARTCHAR 00FE
ENCODING 254
SWIDTH 392 0
DWIDTH 33 0
BBX 28 71 3 -15
BITMAP
C0000000
C0000000
C0000000
C0000000
C0000000
C0000000
C0000000
C0000000
C0000000
C0000000
C0000000
C0000000
C0000000
C0000000
C0000000
C01FC000
C07FF000
C1C01C00
C3000E00
C6000200
C4000300
CC000180
D8000080
D00000C0
D0000040
E0000040
E0000060
E0000020
E0000020
C0000020
C0000030
C0000030
C0000010
C0000010
C0000010
C0000010
C0000010
C0000010
C0000010
C0000010
C0000030
C0000030
C0000020
C0000020
C0000020
E0000020
E0000060
E0000040
D0000040
D00000C0
D8000080
C8000180
C4000300
C6000600
C3000E00
C1C01800
C07FF000
C01F8000
C0000000
C0000000
C0000000
C0000000
C0000000
C0000000
C0000000
C0000000
C0000000
C0000000
C0000000
C0000000
C0000000
ENDCHAR
STARTCHAR 00FF
ENCODING 255
SWIDTH 357 0
DWIDTH 30 0
BBX 25 67 2 -15
BITMAP
00408000
00408000
00408000
00408000
00408000
00408000
00000000
00000000
00000000
00000000
00000000
60000080
60000080
60000080
60000080
60000080
60000080
60000080
60000080
60000080
60000080
60000080
60000080
60000080
60000080
60000080
60000080
60000080
60000080
60000080
60000080
60000080
60000080
60000080
60000080
60000080
60000080
60000080
60000080
60000080
20000180
20000180
20000180
20000180
30000280
30000280
10000680
18000C80
0C000880
0E003880
07806080
01FFC080
007F0080
00000080
80000080
80000080
C0000180
40000180
40000100
40000300
60000300
20000600
10000C00
18001C00
0E007000
03FFE000
00FF8000
ENDCHAR
STARTCHAR 0131
ENCODING 305
SWIDTH 95 0
DWIDTH 8 0
BBX 2 41 3 0
BITMAP
C0
C0
C0
C0
C0
C0
C0
C0
C0
C0
C0
C0
C0
C0
C0
C0
C0
C0
C0
C0
C0
C0
C0
C0
C0
C0
C0
C0
C0
C0
C0
C0
C0
C0
C0
C0
C0
C0
C0
C0
C0
ENDCHAR
STARTCHAR 0152
ENCODING 338
SWIDTH 702 0
DWIDTH 59 0
BBX 55 58 2 0
BITMAP
0001FFFFFFFFFE
000F80FFFFFFFE
003C003C000000
00700026000000
00C00023800000
01800020800000
03000020400000
02000020600000
06000020300000
0C000020100000
08000020180000
18000020080000
10000020040000
10000020040000
30000020060000
20000020020000
20000020020000
60000020030000
60000020010000
40000020010000
40000020010000
40000020010000
40000020010000
C0000020018000
C0000020018000
C0000020018000
80000020018000
8000003FFFFFF8
80000020008000
80000020008000
80000020008000
C0000020018000
C0000020018000
C0000020018000
40000020018000
40000020010000
40000020010000
40000020010000
40000020010000
60000020030000
20000020020000
20000020020000
20000020060000
30000020040000
10000020040000
180000200C0000
08000020080000
0C000020180000
04000020300000
06000020200000
03000020600000
01800020C00000
00C00021800000
00600027000000
0038002E000000
000E007FFFFFFE
0003FFFFFFFFFE
00003E00000000
ENDCHAR
STARTCHAR 0153
ENCODING 339
SWIDTH 738 0
DWIDTH 62 0
BBX 56 43 3 -1
BITMAP
001FC00001F800
007FF0000FFF00
01C01C00180380
030006003000C0
06000300400060
0C000180C00030
08000081800018
180000C1000018
1000004300000C
3000006200000C
20000026000004
60000024000006
40000034000006
40000014000002
4000001C000002
40000018000002
C0000018000003
C0000018000003
80000018000003
80000008000003
8000000FFFFFFF
8000000FFFFFFF
80000008000000
80000008000000
80000018000000
C0000018000000
C0000018000000
40000018000000
40000018000000
4000001C000000
60000034000000
60000024000006
20000024000004
30000066000004
1000004200000C
180000C3000018
08000081000018
0C000101800030
06000300C00060
030006006000C0
01C01C00380380
007FF0001FFF00
001FC00003F800
ENDCHAR
STARTCHAR 0160
ENCODING 352
SWIDTH 452 0
DWIDTH 38 0
BBX 33 74 2 0
BITMAP
0010060000
0018040000
00080C0000
000C080000
0004180000
0006100000
0002300000
0003200000
0001600000
0001C00000
0000C00000
0000000000
0000000000
0000000000
0000000000
0000800000
007FFE0000
01F0078000
038000E000
0600003000
0C00001800
1800000800
1000000C00
3000000400
2000000600
2000000200
2000000200
6000000300
6000000300
6000000100
6000000100
2000000100
2000000000
2000000000
2000000000
1000000000
1000000000
0800000000
0C00000000
0700000000
01C0000000
00F0000000
003F000000
0007E00000
0000FC0000
00001F8000
000003E000
0000007000
0000001800
0000000C00
0000000600
0000000200
0000000300
0000000100
8000000100
8000000180
8000000180
8000000080
C000000080
C000000080
4000000080
4000000180
4000000180
6000000100
2000000100
3000000300
1000000200
0800000600
0C00000C00
0700001800
0380007000
00F803C000
003FFF0000
0000E00000
ENDCHAR
STARTCHAR 0161
ENCODING 353
SWIDTH 345 0
DWIDTH 29 0
BBX 24 58 2 -1
BITMAP
020040
0100C0
018080
008180
00C300
004300
006600
002400
003C00
001800
001800
000000
000000
000000
000000
00FF00
03FFC0
070070
0C0038
180018
18000C
300004
300006
200006
200002
200002
200002
200002
200000
200000
300000
100000
180000
0E0000
078000
03F800
007F80
0007E0
000070
000018
00000C
000004
000006
C00002
C00002
400002
400003
400003
400002
600002
600002
200006
300006
18000C
0C0018
070078
03FFE0
00FF80
ENDCHAR
STARTCHAR 0178
ENCODING 376
SWIDTH 464 0
DWIDTH 39 0
BBX 37 68 1 1
BITMAP
0001020000
0001020000
0001020000
0001020000
0001020000
0001020000
0000000000
0000000000
0000000000
0000000000
0000000000
C000000018
4000000010
2000000020
3000000060
1000000040
18000000C0
0C00000180
0400000100
0600000300
0200000200
0100000600
0180000C00
0080000800
00C0001800
0060003000
0020002000
0030006000
0010004000
001800C000
000C018000
0004010000
0006030000
0002060000
0001060000
00018C0000
0000880000
0000D80000
0000700000
0000300000
0000200000
0000200000
0000200000
0000200000
0000200000
0000200000
0000200000
0000200000
0000200000
0000200000
0000200000
0000200000
0000200000
0000200000
0000200000
0000200000
0000200000
0000200000
0000200000
0000200000
0000200000
0000200000
0000200000
0000200000
0000200000
0000200000
0000200000
0000200000
ENDCHAR
STARTCHAR 0192
ENCODING 402
SWIDTH 404 0
DWIDTH 34 0
BBX 37 70 -2 -15
BITMAP
0000000078
00000003F8
0000000E00
0000001800
0000003000
0000006000
000000C000
0000008000
0000018000
0000010000
0000030000
0000020000
0000020000
0000020000
0000060000
0000040000
0000040000
0000040000
0000040000
0000FFF000
0000FFF000
0000080000
0000080000
0000080000
0000080000
0000180000
0000180000
0000100000
0000100000
0000100000
0000100000
0000300000
0000300000
0000200000
0000200000
0000200000
0000200000
0000200000
0000600000
0000400000
0000400000
0000400000
0000400000
0000400000
0000C00000
0000C00000
0000800000
0000800000
0000800000
0000800000
0001800000
0001800000
0001000000
0001000000
0001000000
0001000000
0003000000
0002000000
0002000000
0006000000
0004000000
0004000000
000C000000
0018000000
0010000000
0030000000
00E0000000
0380000000
3F00000000
F800000000
ENDCHAR
STARTCHAR 02C6
ENCODING 710
SWIDTH 178 0
DWIDTH 15 0
BBX 13 12 1 45
BITMAP
0200
0700
0500
0D80
0880
18C0
1040
3060
2020
6030
4010
C008
ENDCHAR
STARTCHAR 02C7
ENCODING 711
SWIDTH 95 0
DWIDTH 8 0
BBX 12 11 -2 47
BITMAP
8030
C020
4060
6040
20C0
3080
1180
1900
0B00
0E00
0600
ENDCHAR
STARTCHAR 02C9
ENCODING 713
SWIDTH 214 0
DWIDTH 18 0
BBX 14 2 2 50
BITMAP
FFFC
FFFC
ENDCHAR
STARTCHAR 02DA
ENCODING 730
SWIDTH 95 0
DWIDTH 8 0
BBX 9 12 -1 48
BITMAP
1E00
3F00
6100
4080
C080
C080
C080
C080
C080
4180
7F00
3E00
ENDCHAR
STARTCHAR 02DC
ENCODING 732
SWIDTH 261 0
DWIDTH 22 0
BBX 16 6 3 47
BITMAP
3C01
4603
C382
80C6
807C
0010
ENDCHAR
STARTCHAR 03BC
ENCODING 956
SWIDTH 404 0
DWIDTH 34 0
BBX 0 0 0 0
BITMAP
ENDCHAR
STARTCHAR 2010
ENCODING 8208
SWIDTH 250 0
DWIDTH 21 0
BBX 15 2 3 22
BITMAP
FFFE
FFFE
ENDCHAR
STARTCHAR 2013
ENCODING 8211
SWIDTH 345 0
DWIDTH 29 0
BBX 29 2 0 22
BITMAP
FFFFFFF8
FFFFFFF8
ENDCHAR
STARTCHAR 2014
ENCODING 8212
SWIDTH 630 0
DWIDTH 53 0
BBX 52 2 0 22
BITMAP
FFFFFFFFFFFFF0
FFFFFFFFFFFFF0
ENDCHAR
STARTCHAR 2018
ENCODING 8216
SWIDTH 119 0
DWIDTH 10 0
BBX 4 15 3 42
BITMAP
10
10
10
30
30
20
20
20
60
60
40
40
40
C0
C0
ENDCHAR
STARTCHAR 2019
ENCODING 8217
SWIDTH 119 0
DWIDTH 10 0
BBX 4 15 3 42
BITMAP
10
10
10
30
30
20
20
20
60
60
40
40
40
C0
C0
ENDCHAR
STARTCHAR 201A
ENCODING 8218
SWIDTH 202 0
DWIDTH 17 0
BBX 3 15 6 -7
BITMAP
20
20
20
20
60
60
40
40
40
C0
C0
80
80
80
80
ENDCHAR
STARTCHAR 201C
ENCODING 8220
SWIDTH 190 0
DWIDTH 16 0
BBX 10 15 3 42
BITMAP
1040
1040
1040
3040
30C0
20C0
2080
2080
6080
6180
4180
4100
4100
C100
C100
ENDCHAR
STARTCHAR 201D
ENCODING 8221
SWIDTH 190 0
DWIDTH 16 0
BBX 10 15 3 42
BITMAP
1040
1040
1040
3040
30C0
20C0
2080
2080
6080
6180
4180
4100
4100
C100
C100
ENDCHAR
STARTCHAR 201E
ENCODING 8222
SWIDTH 250 0
DWIDTH 21 0
BBX 10 15 6 -7
BITMAP
20C0
2080
2080
2080
6080
6180
4180
4100
4100
C100
C300
8300
8200
8200
8200
ENDCHAR
STARTCHAR 2020
ENCODING 8224
SWIDTH 238 0
DWIDTH 20 0
BBX 15 57 2 -4
BITMAP
0100
0100
0100
0100
0100
0100
0100
0100
0100
0100
0100
FFFE
0100
0100
0100
0100
0100
0100
0100
0100
0100
0100
0100
0100
0100
0100
0100
0100
0100
0100
0100
0100
0100
0100
0100
0100
0100
0100
0100
0100
0100
0100
0100
0100
0100
0100
0100
0100
0100
0100
0100
0100
0100
0100
0100
0100
0100
ENDCHAR
STARTCHAR 2021
ENCODING 8225
SWIDTH 238 0
DWIDTH 20 0
BBX 15 57 2 -4
BITMAP
0180
0180
0180
0180
0180
0180
0180
0180
0180
0180
0180
FFFE
0180
0180
0180
0180
0180
0180
0180
0180
0180
0180
0180
0180
0180
0180
0180
0180
0180
0180
0180
0180
0180
0180
0180
0180
0180
0180
0180
0180
0180
0180
0180
0180
0180
0180
0180
FFFE
0180
0180
0180
0180
0180
0180
0180
0180
0180
ENDCHAR
STARTCHAR 2022
ENCODING 8226
SWIDTH 202 0
DWIDTH 17 0
BBX 8 13 3 21
BITMAP
18
FF
FF
FF
FF
FF
FF
FF
FF
FF
FF
FF
FF
ENDCHAR
STARTCHAR 2026
ENCODING 8230
SWIDTH 452 0
DWIDTH 38 0
BBX 23 7 8 0
BITMAP
801002
801002
801002
801002
801002
801002
801002
ENDCHAR
STARTCHAR 2030
ENCODING 8240
SWIDTH 702 0
DWIDTH 59 0
BBX 56 59 2 -2
BITMAP
00000000400000
00000000C00000
07E00000800000
0E780001800000
18180001000000
300C0003000000
20060002000000
60060006000000
60020004000000
4002000C000000
40030008000000
40030018000000
C0030010000000
C0010030000000
C0010020000000
C0010060000000
C0010040000000
C00100C0000000
C0010080000000
C0010180000000
C0010100000000
40030300000000
40030200000000
40020600000000
40020400000000
60060C00000000
20060800000000
300C1800000000
18181000000000
0E78300F0007C0
07E0203FC00FF0
00006060601818
000040C030300C
0000C08030200C
00008180106004
00018100184006
00010100084002
0003010008C002
0002030008C002
00060300088002
000402000C8003
000C02000C8003
000802000C8003
001802000C8003
001002000C8003
003002000C8003
002002000C8003
006002000C8003
004003000C8002
00C0030008C002
0080010008C002
01800100084002
01000100184006
03000180106004
0200008030200C
060000C0203018
04000070E01838
0000003FC00FF0
00000006000180
ENDCHAR
STARTCHAR 2039
ENCODING 8249
SWIDTH 202 0
DWIDTH 17 0
BBX 9 18 4 14
BITMAP
0080
0100
0200
0600
0C00
1800
3000
6000
C000
C000
6000
3000
1800
0C00
0400
0200
0100
0080
ENDCHAR
STARTCHAR 203A
ENCODING 8250
SWIDTH 202 0
DWIDTH 17 0
BBX 9 19 4 13
BITMAP
8000
C000
6000
2000
1000
1800
0C00
0600
0300
0180
0180
0300
0600
0C00
0800
1000
2000
4000
8000
ENDCHAR
STARTCHAR 20AC
ENCODING 8364
SWIDTH 404 0
DWIDTH 34 0
BBX 29 57 2 -1
BITMAP
0003FE00
000F8780
001C00E0
00300070
00600010
00C00018
00800008
01800000
01000000
03000000
02000000
02000000
06000000
06000000
04000000
04000000
04000000
04000000
04000000
04000000
04000000
04000000
3FFFFE00
3FFFFE00
04000000
04000000
04000000
04000000
04000000
04000000
04000000
04000000
04000000
FFFFFC00
FFFFF800
04000000
04000000
04000000
04000000
04000000
04000000
04000000
04000000
06000000
02000000
02000000
03000000
01000000
01000000
01800000
00C00008
00400018
00600030
00380060
001C01C0
0007FF80
0001FC00
ENDCHAR
STARTCHAR 2122
ENCODING 8482
SWIDTH 547 0
DWIDTH 46 0
BBX 40 28 3 30
BITMAP
FFFFF00003
0040700007
0040700007
0040780005
004068000D
00406C000D
00406C0009
0040640019
0040660011
0040620011
0040620031
0040630021
0040610061
0040618061
0040618041
00406080C1
004060C0C1
004060C081
0040604181
0040606181
0040602101
0040602301
0040603301
0040601601
0040601E01
0040601C01
0040600C01
0040600C01
ENDCHAR
STARTCHAR 2212
ENCODING 8722
SWIDTH 416 0
DWIDTH 35 0
BBX 28 2 3 19
BITMAP
FFFFFFF0
FFFFFFF0
ENDCHAR
STARTCHAR 2219
ENCODING 8729
SWIDTH 142 0
DWIDTH 12 0
BBX 2 7 6 23
BITMAP
80
C0
C0
C0
C0
C0
C0
ENDCHAR
ENDFONT
